<?xml version="1.0" encoding="UTF-8"?>
<svg width="592px" height="260px" viewBox="0 0 592 260" version="1.1" xmlns="http://www.w3.org/2000/svg" xmlns:xlink="http://www.w3.org/1999/xlink">
    <!-- Generator: Sketch 61.2 (89653) - https://sketch.com -->
    <title>logo nehalennia svg</title>
    <desc>Created with Sketch.</desc>
    <defs>
        <polygon id="path-1" points="0.06 0.632 60.674 0.632 60.674 54.199 0.06 54.199"></polygon>
        <polygon id="path-3" points="0.06 0.632 60.674 0.632 60.674 54.199 0.06 54.199"></polygon>
    </defs>
    <g id="Page-1" stroke="none" stroke-width="1" fill="none" fill-rule="evenodd">
        <g id="logo-nehalennia-svg">
            <g id="Group-4" transform="translate(0.000000, 153.000000)">
                <g id="Fill-1-Clipped">
                    <mask id="mask-2" fill="white">
                        <use xlink:href="#path-1"></use>
                    </mask>
                    <g id="path-1"></g>
                    <path d="M54.732,12.182 L54.732,53.995 L49.264,53.995 C45.577,49.615 21.804,25.433 14.977,16.41 L14.977,39.503 C14.977,48.798 15.795,49.892 21.118,49.892 L21.118,53.572 L14.014,53.309 L8.823,53.309 L1.712,53.572 L1.712,49.892 C7.041,49.892 7.859,48.388 7.859,38.963 L7.859,13.554 C7.859,6.166 6.771,4.531 0.208,4.531 L0.208,0.837 L7.041,0.975 L14.693,0.837 C17.978,4.794 39.976,27.762 47.621,36.772 L47.621,11.905 C47.621,6.305 46.803,4.531 41.889,4.531 L41.889,0.837 L48.584,0.975 L53.907,0.975 L60.477,0.837 L60.477,4.531 C55.681,4.531 54.732,6.305 54.732,12.182" id="Fill-1" fill="#FFFFFF" fill-rule="nonzero" mask="url(#mask-2)"></path>
                </g>
                <g id="Fill-3-Clipped">
                    <mask id="mask-4" fill="white">
                        <use xlink:href="#path-3"></use>
                    </mask>
                    <g id="path-1"></g>
                    <path d="M54.652,12.233 L54.34,12.233 L54.34,53.582 L49.204,53.582 L49.204,53.887 L49.439,53.693 C45.739,49.313 22.049,25.221 15.264,16.274 L14.717,15.553 L14.717,39.465 C14.724,44.101 14.904,46.7 15.832,48.26 C16.796,49.84 18.494,50.117 21.148,50.11 L21.148,49.805 L20.843,49.805 L20.843,53.16 L14.079,52.896 L8.895,52.896 L2.123,53.16 L2.123,49.805 L1.811,49.805 L1.811,50.11 C4.473,50.124 6.192,49.721 7.135,48.031 C8.056,46.367 8.243,43.623 8.243,38.917 L8.243,13.598 C8.243,9.919 7.987,7.611 6.816,6.155 C5.61,4.7 3.599,4.312 0.314,4.312 L0.314,4.61 L0.62,4.61 L0.62,1.255 L7.114,1.38 L14.758,1.248 L14.751,0.936 L14.516,1.137 C17.807,5.109 39.723,27.96 47.332,36.934 L47.88,37.572 L47.88,11.97 C47.866,9.163 47.686,7.285 46.799,6.024 C45.891,4.755 44.318,4.304 41.85,4.312 L41.85,4.61 L42.148,4.61 L42.148,1.255 L48.511,1.38 L53.827,1.38 L60.064,1.255 L60.064,4.61 L60.362,4.61 L60.362,4.312 C57.964,4.304 56.398,4.755 55.469,6.058 C54.561,7.341 54.347,9.295 54.34,12.233 L54.956,12.233 C54.95,9.323 55.206,7.479 55.968,6.405 C56.717,5.365 58.006,4.928 60.362,4.928 L60.674,4.928 L60.674,0.632 L53.827,0.777 L48.518,0.777 L41.857,0.638 L41.545,0.632 L41.545,4.928 L41.85,4.928 C44.276,4.928 45.565,5.365 46.293,6.377 C47.041,7.396 47.27,9.191 47.264,11.97 L47.264,36.741 L47.568,36.741 L47.797,36.54 C40.166,27.551 18.23,4.672 14.987,0.749 L14.897,0.632 L7.114,0.777 L0.314,0.638 L0.003,0.632 L0.003,4.928 L0.314,4.928 C3.572,4.928 5.367,5.345 6.344,6.55 C7.342,7.749 7.641,9.939 7.626,13.598 L7.626,38.917 C7.633,43.602 7.418,46.312 6.6,47.74 C5.81,49.133 4.466,49.486 1.811,49.5 L1.514,49.5 L1.514,53.797 L8.909,53.52 L14.065,53.52 L21.142,53.79 L21.46,53.797 L21.46,49.5 L21.148,49.5 C18.487,49.493 17.121,49.222 16.359,47.94 C15.555,46.651 15.326,44.08 15.326,39.465 L15.326,16.454 L15.021,16.454 L14.779,16.641 C21.613,25.658 45.309,49.75 48.975,54.088 L49.065,54.199 L54.956,54.199 L54.956,12.233 L54.652,12.233" id="Fill-3" fill="#FFFFFF" fill-rule="nonzero" mask="url(#mask-4)"></path>
                </g>
            </g>
            <path d="M70.55,181.845 C70.55,164.36 82.298,153.693 94.731,153.568 C108.121,153.291 116.459,164.36 115.912,176.378 C115.78,180.21 114.546,180.473 112.772,180.473 C103.755,180.355 90.906,180.473 81.341,180.619 C81.341,190.454 89.27,208.764 114.962,198.653 L116.05,202.216 C83.802,217.65 70.55,196.879 70.55,181.845 M93.907,158.074 C86.269,158.35 81.473,166.959 81.209,175.559 L96.783,175.559 C104.982,175.559 106.486,175.289 106.486,171.464 C106.486,165.448 102.112,157.796 93.907,158.074" id="Fill-5" fill="#FFFFFF" fill-rule="nonzero"></path>
            <path d="M70.648,181.839 L70.96,181.839 C70.967,164.56 82.528,154.109 94.719,153.977 L95.204,153.97 C107.651,153.977 115.504,164.027 115.504,175.289 L115.483,176.385 C115.421,178.276 115.067,179.205 114.624,179.656 C114.18,180.093 113.536,180.176 112.662,180.176 C110.036,180.134 107.09,180.12 103.972,180.12 C96.473,180.12 88.121,180.21 81.384,180.314 L81.086,180.314 L81.086,180.619 C81.086,184.577 82.341,189.85 85.501,194.176 C88.641,198.501 93.721,201.841 101.241,201.827 C105.136,201.827 109.675,200.947 114.95,198.868 L114.839,198.584 L114.548,198.68 L115.636,202.216 L115.927,202.125 L115.795,201.847 C107.825,205.674 101.06,207.247 95.377,207.247 C86.818,207.247 80.74,203.678 76.768,198.722 C72.804,193.766 70.96,187.397 70.96,181.839 L70.3439918,181.839 C70.3439918,187.536 72.222,194.016 76.297,199.11 C80.351,204.19 86.638,207.857 95.377,207.857 C101.164,207.857 108.039,206.256 116.065,202.402 L116.287,202.292 L115.137,198.501 L115.033,198.181 L114.728,198.3 C109.509,200.358 105.046,201.224 101.241,201.224 C93.901,201.218 89.05,198.002 85.993,193.815 C82.93,189.629 81.703,184.452 81.703,180.619 L81.391,180.619 L81.391,180.924 C88.121,180.834 96.486,180.723 103.972,180.723 C107.077,180.723 110.029,180.744 112.656,180.793 C113.557,180.785 114.402,180.723 115.06,180.086 C115.691,179.441 116.024,178.345 116.1,176.412 L116.121,175.289 C116.121,169.523 114.104,164.041 110.465,159.993 C106.848,155.952 101.594,153.354 95.204,153.354 L94.712,153.361 C82.16,153.492 70.336,164.276 70.3439918,181.839 L70.648,181.839 Z M93.901,158.157 L93.894,157.851 C86.014,158.163 81.225,166.917 80.948,175.573 L80.94,175.886 L96.757,175.886 C100.839,175.886 103.25,175.837 104.754,175.255 C106.286,174.679 106.737,173.425 106.723,171.491 C106.702,165.489 102.44,157.859 94.324,157.845 L93.894,157.851 L93.901,158.157 L93.908,158.469 L94.324,158.462 C98.17,158.462 101.088,160.27 103.077,162.807 C105.073,165.35 106.099,168.629 106.099,171.491 C106.078,173.384 105.78,174.174 104.526,174.679 C103.244,175.199 100.825,175.289 96.757,175.275 L81.259,175.275 L81.259,175.58 L81.557,175.595 C81.821,167.097 86.561,158.711 93.908,158.469 L93.901,158.157 L93.901,158.157 Z" id="Fill-6" fill="#FFFFFF" fill-rule="nonzero"></path>
            <path d="M182.295,162.444 L182.295,196.876 C182.295,201.935 182.419,203.03 188.304,203.03 L188.304,206.579 L180.52,206.308 L171.635,206.308 L164.254,206.579 L164.254,203.03 C170.124,203.03 170.949,201.658 170.949,197.153 L170.949,181.981 L144.162,181.981 L144.162,196.744 C144.162,201.79 144.578,202.891 150.455,202.891 L150.455,206.433 L142.804,206.308 L133.78,206.308 L126.405,206.433 L126.405,202.891 C132.283,202.891 132.83,201.658 132.83,197.021 L132.83,162.853 C132.83,159.027 132.005,157.523 126.405,157.523 L126.405,153.836 L150.732,153.836 L150.732,157.523 C146.082,157.523 144.162,158.341 144.162,162.444 L144.162,177.06 L170.949,177.06 L170.949,162.991 C170.949,159.027 169.854,157.523 164.122,157.523 L164.122,153.836 L171.635,153.974 L180.652,153.974 L188.581,153.836 L188.581,157.523 C183.931,157.523 182.295,158.479 182.295,162.444" id="Fill-7" fill="#FFFFFF" fill-rule="nonzero"></path>
            <path d="M182.207,162.516 L181.903,162.516 L181.903,196.817 C181.91,199.326 181.903,200.906 182.776,201.96 C183.677,202.992 185.264,203.234 188.196,203.249 L188.196,202.936 L187.891,202.936 L187.891,206.16 L180.447,205.889 L171.59,205.889 L164.541,206.16 L164.541,202.936 L164.229,202.936 L164.229,203.249 C167.175,203.234 168.928,202.916 169.982,201.925 C171.021,200.892 171.208,199.333 171.208,197.08 L171.208,181.674 L143.901,181.674 L143.901,196.672 C143.915,199.187 143.977,200.788 144.92,201.828 C145.891,202.867 147.547,203.096 150.479,203.11 L150.479,202.798 L150.174,202.798 L150.174,206.028 L142.855,205.889 L133.859,205.889 L126.817,206.028 L126.817,202.798 L126.512,202.798 L126.512,203.11 C129.444,203.096 131.128,202.826 132.119,201.821 C133.11,200.809 133.207,199.263 133.214,196.948 L133.214,162.919 C133.214,161.012 133.027,159.585 132.008,158.621 C130.996,157.672 129.319,157.304 126.512,157.304 L126.512,157.616 L126.817,157.616 L126.817,154.241 L150.444,154.241 L150.444,157.616 L150.756,157.616 L150.756,157.304 C148.413,157.304 146.736,157.499 145.565,158.282 C144.4,159.072 143.901,160.451 143.901,162.516 L143.901,177.39 L171.208,177.39 L171.208,163.064 C171.208,161.061 170.945,159.592 169.85,158.629 C168.748,157.672 166.981,157.304 164.098,157.304 L164.098,157.616 L164.403,157.616 L164.403,154.255 L171.582,154.38 L180.579,154.38 L188.168,154.255 L188.168,157.616 L188.473,157.616 L188.473,157.304 C186.137,157.304 184.516,157.54 183.42,158.337 C182.318,159.155 181.903,160.513 181.903,162.516 L182.513,162.516 C182.519,160.569 182.908,159.481 183.788,158.829 C184.668,158.171 186.179,157.922 188.473,157.928 L188.778,157.928 L188.778,153.632 L180.572,153.777 L171.59,153.777 L163.786,153.632 L163.786,157.928 L164.098,157.928 C166.932,157.922 168.561,158.303 169.448,159.093 C170.321,159.848 170.599,161.096 170.599,163.064 L170.599,176.766 L144.511,176.766 L144.511,162.516 C144.525,160.513 144.983,159.432 145.911,158.788 C146.868,158.143 148.448,157.922 150.756,157.928 L151.054,157.928 L151.054,153.638 L126.193,153.638 L126.193,157.928 L126.512,157.928 C129.277,157.922 130.802,158.31 131.585,159.072 C132.382,159.807 132.604,161.033 132.597,162.919 L132.597,196.948 C132.604,199.257 132.438,200.642 131.683,201.398 C130.948,202.16 129.423,202.5 126.512,202.493 L126.193,202.493 L126.193,206.644 L133.872,206.506 L142.855,206.506 L150.784,206.644 L150.784,202.493 L150.479,202.493 C147.56,202.5 146.071,202.195 145.37,201.419 C144.65,200.656 144.504,199.187 144.511,196.672 L144.511,182.283 L170.599,182.283 L170.599,197.08 C170.612,199.319 170.377,200.691 169.545,201.474 C168.741,202.264 167.14,202.632 164.229,202.625 L163.924,202.625 L163.924,206.79 L171.597,206.506 L180.44,206.506 L188.508,206.79 L188.508,202.625 L188.196,202.625 C185.278,202.638 183.871,202.334 183.24,201.557 C182.582,200.816 182.506,199.333 182.513,196.817 L182.513,162.516 L182.207,162.516" id="Fill-8" fill="#FFFFFF" fill-rule="nonzero"></path>
            <path d="M229.817,201.252 C209.87,215.737 199.489,203.989 199.897,194.834 C200.306,185.408 210.696,177.472 229.547,177.888 L229.547,167.908 C229.547,160.804 229.547,157.942 225.035,157.942 C217.245,158.08 212.463,161.892 212.463,167.229 C212.463,169.01 206.038,170.923 203.723,170.777 C200.306,170.645 201.54,166.002 203.314,163.396 C207.14,158.482 217.792,153.568 226.671,153.291 C237.199,153.014 240.893,157.387 240.893,165.316 L240.893,194.418 C240.893,199.339 241.572,204.801 248.267,200.42 L250.318,203.435 C238.148,212.591 229.817,205.895 229.817,201.252 M229.547,182.678 C217.245,182.803 211.229,186.489 211.229,193.33 C211.229,198.66 217.245,205.486 229.547,195.922 L229.547,182.678" id="Fill-9" fill="#FFFFFF" fill-rule="nonzero"></path>
            <path d="M229.781,201.172 L229.594,200.935 C222.891,205.795 217.319,207.652 212.897,207.652 C204.588,207.652 200.304,201.067 200.297,195.302 L200.304,194.788 C200.672,185.876 210.299,178.203 228.118,178.189 L229.496,178.203 L229.815,178.21 L229.815,167.96 C229.808,164.418 229.815,161.923 229.233,160.239 C228.658,158.512 227.313,157.688 225.019,157.716 C217.181,157.834 212.204,161.756 212.204,167.28 C212.287,167.786 210.894,168.777 209.113,169.401 C207.339,170.066 205.239,170.523 204.054,170.523 L203.825,170.51 C202.404,170.427 202.002,169.657 201.954,168.403 C201.947,166.947 202.723,164.986 203.645,163.641 L203.395,163.468 L203.638,163.656 C207.339,158.866 217.922,153.952 226.662,153.703 L227.57,153.682 C237.245,153.744 240.44,157.813 240.489,165.374 L240.489,194.365 C240.489,196.195 240.586,198.108 241.057,199.619 C241.515,201.102 242.464,202.26 244.093,202.253 C245.202,202.253 246.56,201.747 248.3,200.61 L248.141,200.353 L247.884,200.527 L249.921,203.528 L250.178,203.354 L249.991,203.105 C245.631,206.39 241.806,207.59 238.707,207.59 C235.991,207.583 233.835,206.661 232.352,205.406 C230.876,204.137 230.079,202.53 230.086,201.172 L230.086,200.575 L229.594,200.935 L229.781,201.172 L229.469,201.172 C229.49,204.345 232.996,208.199 238.707,208.199 C241.965,208.199 245.922,206.945 250.365,203.597 L250.594,203.417 L248.39,200.18 L248.216,199.937 L247.967,200.104 C246.276,201.206 245.001,201.642 244.093,201.642 C242.79,201.636 242.097,200.818 241.646,199.425 C241.196,198.053 241.099,196.175 241.099,194.365 L241.099,165.374 C241.099,161.5 240.225,158.409 238.056,156.288 C235.887,154.153 232.491,153.079 227.57,153.079 L226.641,153.086 C217.701,153.377 207.076,158.263 203.153,163.281 L203.146,163.288 L203.146,163.302 C202.169,164.73 201.351,166.74 201.344,168.403 C201.309,169.817 202.065,171.078 203.79,171.127 L204.054,171.134 C205.364,171.134 207.485,170.67 209.321,169.976 C211.137,169.269 212.731,168.479 212.814,167.28 C212.814,162.186 217.354,158.478 225.019,158.325 C227.209,158.353 228.11,158.949 228.651,160.432 C229.192,161.944 229.199,164.425 229.199,167.96 L229.199,177.905 L229.504,177.905 L229.511,177.594 L228.118,177.579 C210.16,177.565 200.11,185.362 199.695,194.767 L199.674,195.302 C199.695,201.345 204.213,208.248 212.897,208.268 C217.486,208.268 223.19,206.342 229.954,201.428 L229.781,201.172 L229.469,201.172 L229.781,201.172 Z M229.504,182.659 L229.504,182.354 C217.243,182.459 210.978,186.221 210.978,193.284 C210.992,196.791 213.515,200.95 218.615,200.95 C221.519,200.95 225.206,199.605 229.691,196.112 L229.815,196.008 L229.815,182.347 L229.504,182.354 L229.504,182.659 L229.199,182.659 L229.199,195.869 L229.504,195.869 L229.316,195.634 C224.888,199.071 221.332,200.333 218.615,200.333 C213.895,200.326 211.601,196.521 211.588,193.284 C211.588,186.727 217.292,183.131 229.504,182.971 L229.504,182.659 L229.199,182.659 L229.504,182.659 L229.504,182.659 Z" id="Fill-10" fill="#FFFFFF" fill-rule="nonzero"></path>
            <path d="M298.526,206.582 L282.134,206.444 L267.24,206.444 L258.77,206.582 L258.77,203.027 C264.648,203.027 265.195,201.662 265.195,197.156 L265.195,145.502 C265.195,141.544 264.37,140.04 258.77,140.04 L258.77,136.339 L266.152,136.485 L274.753,136.485 L282.82,136.339 L282.82,140.04 C278.031,140.04 276.527,140.997 276.527,144.961 L276.527,193.053 C276.527,199.346 279.404,202.209 283.506,202.209 C291.151,202.209 294.706,202.209 296.613,193.871 L301.395,193.871 L298.526,206.582" id="Fill-11" fill="#FFFFFF" fill-rule="nonzero"></path>
            <path d="M298.411,206.473 L298.425,206.169 L282.118,206.03 L267.293,206.03 L259.177,206.162 L259.177,202.931 L258.872,202.931 L258.872,203.244 C261.804,203.237 263.488,202.918 264.472,201.899 C265.449,200.866 265.56,199.328 265.56,197.068 L265.56,145.58 C265.56,143.598 265.373,142.136 264.361,141.151 C263.356,140.188 261.679,139.827 258.872,139.821 L258.872,140.133 L259.177,140.133 L259.177,136.757 L266.204,136.896 L274.771,136.896 L282.478,136.757 L282.478,140.133 L282.79,140.133 L282.79,139.821 C280.399,139.827 278.77,140.042 277.696,140.86 C276.607,141.671 276.233,143.036 276.233,145.039 L276.233,192.993 C276.233,196.175 276.954,198.524 278.244,200.097 C279.525,201.678 281.362,202.426 283.469,202.419 C287.274,202.419 290.095,202.44 292.264,201.345 C294.454,200.263 295.861,198.059 296.811,193.874 L296.519,193.804 L296.519,194.116 L300.886,194.116 L298.114,206.404 L298.411,206.473 L298.425,206.169 L298.411,206.473 L298.716,206.543 L301.656,193.499 L296.263,193.499 L296.215,193.735 C295.265,197.865 293.955,199.827 291.994,200.804 C290.025,201.803 287.274,201.816 283.469,201.816 C279.56,201.781 276.878,199.176 276.843,192.993 L276.843,145.039 C276.843,143.078 277.21,141.99 278.063,141.345 C278.923,140.687 280.427,140.437 282.79,140.437 L283.095,140.437 L283.095,136.134 L274.764,136.286 L266.204,136.286 L258.567,136.134 L258.567,140.437 L258.872,140.437 C261.637,140.437 263.155,140.825 263.945,141.595 C264.735,142.35 264.95,143.618 264.95,145.58 L264.95,197.068 C264.957,199.321 264.791,200.707 264.035,201.476 C263.294,202.266 261.776,202.634 258.872,202.627 L258.567,202.627 L258.567,206.785 L267.3,206.646 L282.103,206.646 L298.661,206.785 L298.716,206.543 L298.411,206.473" id="Fill-12" fill="#FFFFFF" fill-rule="nonzero"></path>
            <path d="M307.79,181.845 C307.79,164.36 319.537,153.693 331.979,153.568 C345.369,153.291 353.7,164.36 353.145,176.378 C353.013,180.21 351.78,180.473 350.005,180.473 C340.982,180.355 328.146,180.473 318.581,180.619 C318.581,190.454 326.503,208.764 352.196,198.653 L353.29,202.216 C321.041,217.65 307.79,196.879 307.79,181.845 M331.147,158.074 C323.495,158.35 318.72,166.959 318.45,175.559 L334.023,175.559 C342.222,175.559 343.726,175.289 343.726,171.464 C343.726,165.448 339.346,157.796 331.147,158.074" id="Fill-13" fill="#FFFFFF" fill-rule="nonzero"></path>
            <path d="M307.889,181.839 L308.201,181.839 C308.207,164.56 319.775,154.109 331.953,153.977 L332.438,153.97 C344.892,153.977 352.738,164.034 352.738,175.297 L352.724,176.385 C352.668,178.276 352.308,179.205 351.865,179.656 C351.42,180.093 350.79,180.176 349.903,180.176 C347.276,180.134 344.324,180.12 341.219,180.12 C333.72,180.12 325.354,180.21 318.624,180.314 L318.32,180.314 L318.32,180.619 C318.32,184.577 319.58,189.85 322.742,194.176 C325.874,198.501 330.954,201.841 338.481,201.827 C342.37,201.827 346.909,200.947 352.19,198.868 L352.079,198.584 L351.781,198.68 L352.876,202.216 L353.161,202.125 L353.036,201.847 C345.065,205.674 338.287,207.247 332.618,207.247 C324.058,207.247 317.98,203.678 314.009,198.722 C310.037,193.766 308.201,187.397 308.201,181.839 L307.583994,181.839 C307.59,187.536 309.469,194.016 313.531,199.11 C317.599,204.19 323.885,207.857 332.618,207.857 C338.411,207.857 345.266,206.256 353.299,202.402 L353.541,202.292 L352.364,198.501 L352.281,198.181 L351.961,198.3 C346.743,200.358 342.286,201.224 338.481,201.224 C331.141,201.218 326.29,198.002 323.234,193.815 C320.163,189.629 318.937,184.452 318.937,180.619 L318.631,180.619 L318.631,180.924 C325.368,180.834 333.72,180.723 341.219,180.723 C344.324,180.723 347.276,180.744 349.903,180.793 C350.79,180.785 351.643,180.723 352.294,180.086 C352.932,179.441 353.257,178.345 353.327,176.412 L353.362,175.297 C353.362,169.523 351.344,164.041 347.712,159.993 C344.081,155.952 338.841,153.354 332.438,153.354 L331.953,153.361 C319.401,153.492 307.577,164.276 307.583994,181.839 L307.889,181.839 Z M331.141,158.157 L331.134,157.851 C323.254,158.163 318.465,166.917 318.188,175.573 L318.181,175.886 L333.99,175.886 C338.079,175.886 340.491,175.837 341.995,175.255 C343.527,174.679 343.977,173.425 343.963,171.491 C343.95,165.489 339.68,157.859 331.571,157.845 L331.134,157.851 L331.141,158.157 L331.149,158.469 L331.571,158.462 C335.397,158.462 338.328,160.27 340.331,162.807 C342.307,165.35 343.339,168.629 343.339,171.491 C343.319,173.384 343.028,174.174 341.766,174.679 C340.484,175.199 338.072,175.289 333.99,175.275 L318.499,175.275 L318.499,175.58 L318.797,175.595 C319.068,167.097 323.795,158.711 331.149,158.469 L331.141,158.157 L331.141,158.157 Z" id="Fill-14" fill="#FFFFFF" fill-rule="nonzero"></path>
            <path d="M489.18,165.182 L489.18,206.995 L483.718,206.995 C480.032,202.615 456.252,178.433 449.418,169.41 L449.418,192.503 C449.418,201.798 450.244,202.892 455.573,202.892 L455.573,206.572 L448.462,206.309 L443.264,206.309 L436.174,206.572 L436.174,202.892 C441.49,202.892 442.315,201.388 442.315,191.963 L442.315,166.554 C442.315,159.166 441.212,157.531 434.656,157.531 L434.656,153.837 L441.49,153.975 L449.141,153.837 C452.433,157.794 474.424,180.762 482.083,189.772 L482.083,164.905 C482.083,159.305 481.258,157.531 476.33,157.531 L476.33,153.837 L483.033,153.975 L488.355,153.975 L494.918,153.837 L494.918,157.531 C490.136,157.531 489.18,159.305 489.18,165.182" id="Fill-15" fill="#FFFFFF" fill-rule="nonzero"></path>
            <path d="M489.1,165.233 L488.787,165.233 L488.787,206.582 L483.645,206.582 L483.645,206.887 L483.888,206.693 C480.194,202.313 456.497,178.221 449.719,169.274 L449.172,168.553 L449.172,192.465 C449.179,197.101 449.352,199.7 450.281,201.26 C451.245,202.84 452.95,203.117 455.597,203.11 L455.597,202.805 L455.291,202.805 L455.291,206.16 L448.535,205.896 L443.343,205.896 L436.572,206.16 L436.572,202.805 L436.26,202.805 L436.26,203.11 C438.921,203.124 440.64,202.721 441.589,201.031 C442.511,199.367 442.685,196.623 442.692,191.917 L442.692,166.598 C442.685,162.919 442.442,160.611 441.264,159.155 C440.065,157.7 438.041,157.312 434.77,157.312 L434.77,157.61 L435.068,157.61 L435.068,154.255 L441.569,154.38 L449.213,154.248 L449.2,153.936 L448.956,154.137 C452.263,158.109 474.171,180.96 481.787,189.934 L482.328,190.572 L482.328,164.97 C482.315,162.163 482.141,160.285 481.247,159.024 C480.339,157.755 478.766,157.304 476.298,157.312 L476.298,157.61 L476.604,157.61 L476.604,154.255 L482.966,154.38 L488.275,154.38 L494.506,154.255 L494.506,157.61 L494.818,157.61 L494.818,157.312 C492.412,157.304 490.846,157.755 489.917,159.058 C489.024,160.341 488.801,162.295 488.787,165.233 L489.405,165.233 C489.398,162.323 489.661,160.479 490.423,159.405 C491.165,158.365 492.454,157.928 494.818,157.928 L495.122,157.928 L495.122,153.632 L488.268,153.777 L482.966,153.777 L476.298,153.638 L475.987,153.632 L475.987,157.928 L476.298,157.928 C478.732,157.928 480.02,158.365 480.748,159.377 C481.496,160.396 481.711,162.191 481.711,164.97 L481.711,189.741 L482.024,189.741 L482.252,189.54 C474.615,180.551 452.679,157.672 449.442,153.749 L449.345,153.632 L441.569,153.777 L434.77,153.638 L434.464,153.632 L434.464,157.928 L434.77,157.928 C438.02,157.928 439.815,158.345 440.792,159.55 C441.797,160.749 442.081,162.939 442.081,166.598 L442.081,191.917 C442.081,196.602 441.86,199.312 441.049,200.74 C440.266,202.133 438.921,202.486 436.26,202.5 L435.961,202.5 L435.961,206.797 L443.357,206.52 L448.513,206.52 L455.582,206.79 L455.909,206.797 L455.909,202.5 L455.597,202.5 C452.942,202.493 451.577,202.222 450.8,200.94 C449.996,199.651 449.782,197.08 449.782,192.465 L449.782,169.454 L449.47,169.454 L449.227,169.641 C456.061,178.658 479.757,202.75 483.416,207.088 L483.513,207.199 L489.405,207.199 L489.405,165.233 L489.1,165.233" id="Fill-16" fill="#FFFFFF" fill-rule="nonzero"></path>
            <path d="M523.445,162.444 L523.445,196.876 C523.445,201.935 523.445,203.03 529.316,203.03 L529.316,206.579 L521.671,206.308 L513.063,206.308 L505.689,206.579 L505.689,203.03 C511.559,203.03 512.099,201.658 512.099,197.153 L512.099,162.991 C512.099,159.027 511.282,157.523 505.689,157.523 L505.689,153.836 L513.063,153.974 L521.671,153.974 L529.731,153.836 L529.731,157.523 C524.949,157.523 523.445,158.479 523.445,162.444" id="Fill-17" fill="#FFFFFF" fill-rule="nonzero"></path>
            <path d="M523.397,162.516 L523.092,162.516 L523.092,196.817 C523.099,199.326 523.057,200.892 523.889,201.96 C524.755,202.992 526.301,203.234 529.219,203.249 L529.219,202.936 L528.913,202.936 L528.913,206.16 L521.651,205.889 L513.105,205.889 L506.084,206.152 L506.084,202.936 L505.779,202.936 L505.779,203.249 C508.71,203.234 510.388,202.923 511.372,201.911 C512.342,200.871 512.447,199.333 512.453,197.08 L512.453,163.064 C512.447,161.075 512.273,159.619 511.261,158.636 C510.256,157.672 508.579,157.304 505.779,157.304 L505.779,157.616 L506.084,157.616 L506.084,154.255 L513.091,154.38 L521.636,154.38 L529.316,154.255 L529.316,157.616 L529.627,157.616 L529.627,157.304 C527.244,157.304 525.628,157.533 524.554,158.337 C523.473,159.162 523.092,160.513 523.092,162.516 L523.709,162.516 C523.709,160.569 524.07,159.467 524.921,158.829 C525.782,158.171 527.279,157.922 529.627,157.928 L529.933,157.928 L529.933,153.632 L521.622,153.777 L513.105,153.777 L505.481,153.632 L505.481,157.928 L505.779,157.928 C508.544,157.922 510.062,158.31 510.838,159.079 C511.628,159.834 511.843,161.089 511.843,163.064 L511.843,197.08 C511.85,199.326 511.677,200.712 510.929,201.488 C510.194,202.264 508.676,202.632 505.779,202.625 L505.481,202.625 L505.481,206.79 L513.112,206.506 L521.636,206.506 L529.537,206.79 L529.537,202.625 L529.219,202.625 C526.308,202.638 524.956,202.334 524.361,201.564 C523.744,200.823 523.702,199.333 523.709,196.817 L523.709,162.516 L523.397,162.516" id="Fill-18" fill="#FFFFFF" fill-rule="nonzero"></path>
            <path d="M570.832,201.252 C550.878,215.737 540.503,203.989 540.912,194.834 C541.322,185.408 551.71,177.472 570.562,177.888 L570.562,167.908 C570.562,160.804 570.562,157.942 566.057,157.942 C558.26,158.08 553.485,161.892 553.485,167.229 C553.485,169.01 547.053,170.923 544.739,170.777 C541.322,170.645 542.555,166.002 544.323,163.396 C548.155,158.482 558.808,153.568 567.693,153.291 C578.213,153.014 581.908,157.387 581.908,165.316 L581.908,194.418 C581.908,199.339 582.587,204.801 589.275,200.42 L591.333,203.435 C579.177,212.591 570.832,205.895 570.832,201.252 M570.562,182.678 C558.26,182.803 552.251,186.489 552.251,193.33 C552.251,198.66 558.26,205.486 570.562,195.922 L570.562,182.678" id="Fill-19" fill="#FFFFFF" fill-rule="nonzero"></path>
            <path d="M570.788,201.172 L570.608,200.935 C563.906,205.795 558.333,207.652 553.911,207.652 C545.602,207.652 541.319,201.067 541.305,195.302 L541.319,194.788 C541.693,185.876 551.32,178.203 569.132,178.189 L570.518,178.203 L570.823,178.21 L570.823,167.96 C570.823,164.418 570.844,161.923 570.247,160.239 C569.665,158.512 568.334,157.688 566.034,157.716 C558.188,157.834 553.219,161.756 553.226,167.28 C553.302,167.786 551.915,168.777 550.127,169.401 C548.361,170.066 546.246,170.523 545.076,170.523 L544.839,170.51 C543.418,170.427 543.01,169.657 542.961,168.403 C542.961,166.947 543.738,164.986 544.66,163.641 L544.416,163.468 L544.653,163.656 C548.346,158.866 558.937,153.952 567.669,153.703 L568.584,153.682 C578.259,153.744 581.448,157.813 581.496,165.374 L581.496,194.365 C581.503,196.195 581.6,198.108 582.072,199.619 C582.529,201.102 583.479,202.26 585.107,202.253 C586.216,202.253 587.581,201.747 589.314,200.61 L589.155,200.353 L588.891,200.527 L590.936,203.528 L591.192,203.354 L591.005,203.105 C586.646,206.39 582.82,207.59 579.722,207.59 C577.012,207.583 574.85,206.661 573.367,205.406 C571.89,204.137 571.093,202.53 571.093,201.172 L571.093,200.575 L570.608,200.935 L570.788,201.172 L570.476,201.172 C570.504,204.345 574.011,208.199 579.722,208.199 C582.987,208.199 586.937,206.945 591.379,203.597 L591.608,203.417 L589.404,200.18 L589.231,199.937 L588.975,200.104 C587.29,201.206 586.022,201.642 585.107,201.642 C583.811,201.636 583.111,200.818 582.647,199.425 C582.217,198.053 582.12,196.175 582.12,194.365 L582.12,165.374 C582.12,161.5 581.233,158.409 579.071,156.288 C576.901,154.153 573.505,153.079 568.584,153.079 L567.662,153.086 C558.715,153.377 548.09,158.263 544.174,163.281 L544.167,163.288 L544.161,163.302 C543.183,164.73 542.366,166.74 542.366,168.403 C542.324,169.817 543.079,171.078 544.805,171.127 L545.076,171.134 C546.378,171.134 548.499,170.67 550.342,169.976 C552.159,169.269 553.745,168.479 553.835,167.28 C553.835,162.186 558.369,158.478 566.04,158.325 C568.224,158.353 569.132,158.949 569.665,160.432 C570.213,161.944 570.22,164.425 570.22,167.96 L570.22,177.905 L570.518,177.905 L570.525,177.594 L569.132,177.579 C551.181,177.565 541.124,185.362 540.708,194.767 L540.702,195.302 C540.708,201.345 545.235,208.248 553.911,208.268 C558.5,208.268 564.197,206.342 570.968,201.428 L570.788,201.172 L570.476,201.172 L570.788,201.172 Z M570.518,182.659 L570.518,182.354 C558.257,182.459 551.985,186.221 551.985,193.284 C552.006,196.791 554.529,200.95 559.622,200.95 C562.534,200.95 566.221,199.605 570.705,196.112 L570.823,196.008 L570.823,182.347 L570.518,182.354 L570.518,182.659 L570.22,182.659 L570.22,195.869 L570.518,195.869 L570.33,195.634 C565.909,199.071 562.346,200.333 559.622,200.333 C554.91,200.326 552.622,196.521 552.609,193.284 C552.609,186.727 558.313,183.131 570.518,182.971 L570.518,182.659 L570.22,182.659 L570.518,182.659 L570.518,182.659 Z" id="Fill-20" fill="#FFFFFF" fill-rule="nonzero"></path>
            <path d="M417.352,153.977 L412.015,153.977 L405.313,153.839 L405.313,157.532 C410.241,157.532 411.065,159.307 411.065,164.907 L411.065,189.774 C404.703,182.275 388.443,165.17 381.235,157.325 C377.777,158.725 374.18,159.681 370.472,160.159 C371.11,161.532 371.296,163.576 371.296,166.543 L371.296,191.965 C371.296,201.39 370.472,202.894 365.149,202.894 L365.149,206.582 L372.253,206.304 L377.444,206.304 L384.555,206.582 L384.555,202.894 C379.225,202.894 378.394,201.793 378.394,192.506 L378.394,169.412 C385.235,178.436 409.007,202.617 412.694,206.998 L418.162,206.998 L418.162,165.178 C418.162,159.307 419.119,157.532 423.901,157.532 L423.901,153.839 L417.352,153.977" id="Fill-21" fill="#FFFFFF" fill-rule="nonzero"></path>
            <path d="M417.264,154.075 L417.264,153.778 L411.948,153.778 L405.294,153.639 L404.969,153.632 L404.969,157.922 L405.281,157.922 C407.706,157.922 409.002,158.359 409.723,159.378 C410.479,160.397 410.701,162.192 410.694,164.971 L410.694,189.734 L410.998,189.734 L411.234,189.54 C404.893,182.062 388.682,165.019 381.515,157.215 L381.37,157.049 L381.168,157.125 C377.752,158.512 374.183,159.461 370.516,159.939 L370.1,160.002 L370.281,160.376 C370.876,161.658 371.078,163.647 371.064,166.599 L371.064,191.918 C371.078,196.609 370.849,199.305 370.045,200.74 C369.255,202.134 367.904,202.487 365.249,202.501 L364.944,202.501 L364.944,206.798 L372.339,206.52 L377.509,206.52 L384.572,206.784 L384.898,206.798 L384.898,202.501 L384.578,202.501 C381.917,202.494 380.559,202.223 379.796,200.948 C378.993,199.645 378.757,197.081 378.757,192.465 L378.757,169.455 L378.452,169.455 L378.216,169.636 C385.05,178.659 408.746,202.751 412.406,207.082 L412.489,207.2 L418.387,207.2 L418.387,165.241 C418.38,162.323 418.636,160.473 419.399,159.406 C420.147,158.359 421.444,157.922 423.8,157.922 L424.105,157.922 L424.105,153.632 L417.257,153.778 L417.264,154.075 L417.278,154.381 L423.488,154.249 L423.488,157.611 L423.8,157.611 L423.8,157.312 C421.388,157.305 419.828,157.763 418.9,159.059 C418.005,160.341 417.784,162.296 417.777,165.241 L417.777,206.583 L412.634,206.583 L412.634,206.887 L412.876,206.687 C409.168,202.306 385.487,178.222 378.702,169.275 L378.147,168.554 L378.147,192.465 C378.154,197.095 378.334,199.701 379.263,201.267 C380.233,202.841 381.931,203.118 384.578,203.111 L384.578,202.805 L384.274,202.805 L384.274,206.16 L377.516,205.897 L372.332,205.897 L365.561,206.16 L365.561,202.805 L365.249,202.805 L365.249,203.111 C367.904,203.125 369.622,202.722 370.572,201.031 C371.5,199.361 371.68,196.624 371.688,191.918 L371.688,166.599 C371.688,163.633 371.5,161.574 370.821,160.119 L370.558,160.244 L370.585,160.549 C374.307,160.071 377.932,159.1 381.405,157.7 L381.286,157.416 L381.065,157.617 C388.231,165.442 404.435,182.492 410.77,189.935 L411.311,190.573 L411.311,164.971 C411.296,162.164 411.117,160.279 410.237,159.017 C409.322,157.756 407.755,157.305 405.281,157.312 L405.281,157.611 L405.592,157.611 L405.592,154.249 L411.948,154.381 L417.264,154.381 L417.264,154.075" id="Fill-22" fill="#FFFFFF" fill-rule="nonzero"></path>
            <polyline id="Fill-23" fill="#FFFFFF" fill-rule="nonzero" points="362.161 0.522 361.281 0.619 360.684 17.086 363.671 16.996 362.161 0.522"></polyline>
            <polyline id="Fill-24" fill="#FFFFFF" fill-rule="nonzero" points="362.154 0.64 362.119 0.335 361.308 0.426 361.037 0.453 360.476 17.302 363.575 17.205 363.886 17.191 362.431 0.301 362.119 0.335 362.154 0.64 361.849 0.661 363.228 16.602 361.107 16.664 361.634 1.001 362.188 0.945 362.154 0.64 361.849 0.661 362.154 0.64"></polyline>
            <path d="M384.22,30.781 C384.22,31.765 384.075,32.722 383.797,33.643 L388.302,38.141 C389.203,36.277 389.716,34.267 389.716,32.153 C389.716,22.492 379.375,14.66 366.61,14.66 L365.203,14.715 L365.203,16.885 C375.772,17.169 384.22,23.275 384.22,30.781" id="Fill-25" fill="#FFFFFF" fill-rule="nonzero"></path>
            <path d="M384.162,30.697 L383.857,30.697 C383.857,31.633 383.711,32.548 383.455,33.442 L383.4,33.615 L388.293,38.487 L388.48,38.106 C389.395,36.228 389.921,34.19 389.921,32.056 C389.901,22.262 379.47,14.479 366.697,14.451 L365.296,14.514 L365.005,14.52 L365.005,17.258 L365.296,17.272 C375.686,17.549 383.885,23.537 383.857,30.697 L384.474,30.697 C384.453,23.018 375.894,16.939 365.318,16.648 L365.311,16.953 L365.616,16.953 L365.616,15.11 L366.717,15.068 C372.969,15.068 378.638,16.988 382.721,20.072 C386.803,23.156 389.305,27.391 389.305,32.056 C389.305,34.086 388.813,36.034 387.932,37.843 L388.217,37.974 L388.432,37.76 L383.961,33.31 L383.74,33.525 L384.037,33.615 C384.322,32.665 384.474,31.702 384.474,30.697 L384.162,30.697" id="Fill-26" fill="#FFFFFF" fill-rule="nonzero"></path>
            <path d="M377.639,28.595 C375.608,27.999 371.671,27.091 369.335,28.089 L369.211,28.526 L369.981,29.316 C370.646,29.51 371.318,29.614 371.997,29.711 C373.314,29.891 374.618,29.988 375.899,30.307 C376.641,30.556 377.411,30.085 377.639,29.288 L377.66,29.136 L377.639,28.595" id="Fill-27" fill="#FFFFFF" fill-rule="nonzero"></path>
            <path d="M377.541,28.622 L377.624,28.324 C376.259,27.95 374.048,27.437 372.017,27.437 C371.047,27.437 370.112,27.555 369.335,27.867 L369.197,27.929 L369.03,28.47 L368.975,28.65 L369.855,29.516 L369.904,29.571 L369.994,29.585 C370.659,29.765 371.331,29.869 372.01,29.959 C373.279,30.133 374.561,30.223 375.781,30.507 L375.85,30.202 L375.753,30.5 L376.245,30.577 C376.973,30.577 377.618,30.077 377.839,29.356 L377.846,29.322 L377.86,29.156 L377.86,29.135 L377.846,28.615 L377.846,28.393 L377.624,28.324 L377.541,28.622 L377.229,28.636 L377.25,29.114 L377.229,29.225 L377.541,29.26 L377.25,29.176 L376.245,29.959 L375.933,29.911 L375.919,29.911 L375.912,29.904 C374.63,29.613 373.334,29.523 372.079,29.356 C371.414,29.266 370.77,29.162 370.146,28.989 L370.063,29.287 L370.278,29.072 L369.675,28.47 L369.737,28.241 L369.446,28.158 L369.564,28.442 C370.236,28.171 371.088,28.054 372.017,28.054 C373.944,28.054 376.134,28.553 377.457,28.92 L377.541,28.622 L377.229,28.636 L377.541,28.622" id="Fill-28" fill="#FFFFFF" fill-rule="nonzero"></path>
            <path d="M407.201,86.259 C406.514,86.834 405.689,87.514 405.377,87.77 C406.763,92.795 407.526,98.249 407.526,105.049 L391.349,105.049 C391.183,101.32 390.836,98.769 390.344,96.337 L389.097,96.78 C389.451,99.088 387.607,105.049 384.149,105.049 L369.525,105.049 L370.432,108.687 L389.637,108.687 C389.637,112.249 389.444,114.655 389.09,116.949 L390.337,117.399 C390.829,114.967 391.176,112.416 391.322,108.687 L407.284,108.687 L407.394,109.768 L407.484,111.598 C407.408,114.37 407.145,117.08 406.729,119.693 C406.541,120.83 406.327,121.939 406.091,123.034 L407.373,124.33 C409.363,118.515 410.464,112.194 410.464,105.568 C410.464,98.748 409.307,92.226 407.201,86.259" id="Fill-29" fill="#FFFFFF" fill-rule="nonzero"></path>
            <path d="M407.117,86.432 L406.915,86.197 C406.236,86.765 405.418,87.452 405.113,87.701 L404.953,87.819 L405.016,88.006 C406.381,92.961 407.137,98.332 407.137,105.041 L407.442,105.041 L407.442,104.737 L391.342,104.737 L391.342,105.041 L391.654,105.028 C391.495,101.333 391.155,98.783 390.662,96.35 L390.586,96.004 L389.013,96.558 L388.777,96.648 L388.819,96.898 L388.854,97.48 C388.861,98.7 388.416,100.564 387.592,102.075 C386.774,103.607 385.603,104.743 384.189,104.737 L369.26,104.737 L370.258,108.721 L370.321,108.957 L389.651,108.957 L389.651,108.652 L389.339,108.652 C389.339,112.159 389.152,114.516 388.805,116.789 L388.763,117.038 L390.233,117.565 L390.573,117.683 L390.649,117.344 C391.141,114.918 391.48,112.367 391.633,108.659 L391.328,108.645 L391.328,108.957 L406.929,108.957 L407.005,109.747 L407.095,111.55 L407.408,111.535 L407.095,111.529 C407.012,114.26 406.755,116.921 406.339,119.506 C406.16,120.615 405.952,121.71 405.709,122.791 L405.674,122.95 L407.075,124.357 L407.428,124.711 L407.58,124.24 C409.563,118.446 410.671,112.153 410.671,105.561 C410.671,98.769 409.507,92.275 407.408,86.322 L407.262,85.906 L406.915,86.197 L407.117,86.432 L406.831,86.536 C408.911,92.414 410.047,98.831 410.047,105.561 C410.047,112.09 408.966,118.307 407.005,124.039 L407.296,124.142 L407.511,123.928 L406.229,122.638 L406.014,122.853 L406.312,122.916 C406.554,121.835 406.762,120.733 406.943,119.603 C407.366,117.004 407.622,114.308 407.712,111.55 L407.712,111.529 L407.608,109.699 L407.511,108.611 L407.484,108.341 L391.036,108.341 L391.023,108.638 C390.87,112.305 390.537,114.814 390.045,117.219 L390.351,117.281 L390.448,116.997 L389.214,116.547 L389.103,116.838 L389.414,116.879 C389.768,114.585 389.949,112.18 389.949,108.652 L389.949,108.347 L370.799,108.347 L369.953,104.965 L369.662,105.041 L369.662,105.346 L384.189,105.346 C387.717,105.256 389.436,100.141 389.463,97.48 L389.422,96.808 L389.123,96.856 L389.221,97.14 L390.454,96.704 L390.358,96.42 L390.059,96.475 C390.551,98.873 390.891,101.375 391.036,105.062 L391.057,105.353 L407.746,105.353 L407.746,105.041 C407.746,98.284 406.992,92.85 405.598,87.853 L405.307,87.936 L405.495,88.172 C405.806,87.916 406.638,87.237 407.317,86.668 L407.117,86.432 L406.831,86.536 L407.117,86.432" id="Fill-30" fill="#FFFFFF" fill-rule="nonzero"></path>
            <path d="M365.407,90.651 L362.966,90.651 L360.887,105.046 L354.677,105.046 C339.437,105.046 343.706,83.914 348.814,78.384 L348.391,77.912 C342.923,83.526 339.132,93.008 338.495,105.046 L322.311,105.046 C322.311,88.815 327.661,75.438 335.847,67.343 L335.064,66.498 C325.513,76.007 319.469,89.986 319.469,105.573 C319.469,110.348 320.037,114.971 321.098,119.358 L321.389,120.391 L321.389,120.405 L321.41,120.474 C319.552,122.324 314.271,128.07 310.938,136.657 C307.154,146.437 306.003,156.625 305.657,162.114 C311.728,152.252 321.729,146.665 332.104,146.548 C334.003,146.506 335.826,146.665 337.573,146.956 C336.644,146.159 335.749,145.335 334.87,144.448 L335.001,144.434 C334.405,143.803 333.836,143.158 333.276,142.479 L332.804,141.89 L331.549,140.255 L331.161,139.721 C330.649,138.986 330.143,138.244 329.671,137.461 L329.429,137.046 C329.04,136.394 328.653,135.722 328.299,135.035 L327.932,134.328 C327.572,133.622 327.218,132.894 326.892,132.153 L326.705,131.737 C326.317,130.863 325.963,129.955 325.623,129.027 L325.395,128.354 C325.138,127.613 324.889,126.85 324.674,126.088 L324.439,125.298 C324.168,124.307 323.905,123.309 323.69,122.262 C322.776,118.104 322.304,113.585 322.304,108.685 L338.48,108.685 C339.124,120.731 342.91,130.205 348.377,135.825 L348.807,135.354 C343.588,129.706 341.169,120.356 341.169,108.692 L362.966,108.692 L363.375,103.958 L364.221,91.538 L365.483,91.538 L365.407,90.651" id="Fill-31" fill="#FFFFFF" fill-rule="nonzero"></path>
            <path d="M365.3,90.741 L365.3,90.429 L362.59,90.429 L360.491,105.053 L360.795,105.094 L360.795,104.796 L354.599,104.796 C346.885,104.775 344.404,99.342 344.37,93.16 C344.356,87.47 346.615,81.252 348.978,78.702 L349.179,78.494 L348.563,77.828 L348.348,77.593 L348.119,77.828 C342.609,83.491 338.811,93.021 338.166,105.08 L338.471,105.101 L338.471,104.796 L322.329,104.796 L322.329,105.101 L322.649,105.101 C322.649,88.973 327.957,75.701 336.038,67.71 L336.253,67.502 L335.269,66.434 L335.054,66.206 L334.832,66.428 C325.247,75.978 319.21,89.992 319.21,105.642 C319.21,110.417 319.779,115.047 320.839,119.441 L321.13,120.494 L321.429,120.411 L321.172,120.245 L321.165,120.259 L321.089,120.369 L321.145,120.577 L321.436,120.494 L321.228,120.28 C319.356,122.137 314.068,127.903 310.728,136.518 C306.922,146.332 305.786,156.527 305.433,162.002 L306.001,162.189 C312.003,152.438 321.886,146.921 332.102,146.81 L332.705,146.803 C334.369,146.803 335.962,146.956 337.495,147.212 L338.576,147.392 L337.757,146.678 C336.835,145.888 335.942,145.071 335.076,144.198 L334.868,144.412 L334.916,144.717 L335.054,144.689 L335.595,144.585 L335.214,144.177 C334.631,143.567 334.071,142.915 333.509,142.243 L333.044,141.668 L331.797,140.046 L331.409,139.505 C330.903,138.791 330.411,138.05 329.947,137.281 L329.703,136.865 C329.309,136.213 328.942,135.548 328.581,134.875 L328.214,134.176 C327.861,133.469 327.521,132.748 327.188,132.013 L326.995,131.597 C326.62,130.731 326.273,129.837 325.934,128.915 L325.704,128.25 C325.462,127.508 325.212,126.766 324.992,126.004 L324.762,125.221 C324.485,124.237 324.229,123.246 324.007,122.206 C323.12,118.089 322.635,113.598 322.635,108.733 L322.329,108.733 L322.329,109.031 L338.457,109.031 L338.457,108.733 L338.16,108.746 C338.79,120.813 342.581,130.336 348.105,136.012 L348.327,136.248 L348.978,135.548 L349.165,135.333 L348.978,135.125 C343.857,129.594 341.438,120.342 341.438,108.733 L341.132,108.733 L341.132,109.038 L363.152,109.038 L363.575,104.048 L364.406,91.933 L365.703,91.933 L365.605,90.713 L365.584,90.429 L365.3,90.429 L365.3,90.741 L364.995,90.762 L365.036,91.33 L363.824,91.33 L362.957,103.999 L362.583,108.435 L340.828,108.435 L340.828,108.733 C340.834,120.411 343.24,129.816 348.514,135.548 L348.743,135.333 L348.514,135.125 L348.105,135.589 L348.327,135.804 L348.541,135.589 C343.163,130.058 339.4,120.681 338.77,108.712 L338.755,108.421 L322.018,108.421 L322.018,108.733 C322.018,113.633 322.51,118.179 323.404,122.345 C323.64,123.385 323.896,124.396 324.173,125.387 L324.402,126.178 C324.63,126.953 324.873,127.709 325.122,128.45 L325.366,129.123 C325.698,130.052 326.051,130.967 326.433,131.847 L326.634,132.262 C326.959,133.018 327.306,133.739 327.666,134.453 L328.04,135.153 C328.401,135.846 328.783,136.518 329.177,137.177 L329.427,137.599 C329.891,138.375 330.39,139.124 330.91,139.866 L331.305,140.406 L332.559,142.049 L333.031,142.638 C333.599,143.31 334.174,143.975 334.777,144.599 L334.993,144.391 L334.937,144.094 L334.805,144.114 L334.244,144.225 L334.646,144.627 C335.512,145.514 336.427,146.339 337.356,147.143 L337.549,146.914 L337.605,146.609 C336.032,146.346 334.396,146.193 332.705,146.193 L332.088,146.2 C321.651,146.304 311.574,151.946 305.481,161.87 L305.738,162.023 L306.049,162.044 C306.389,156.59 307.533,146.45 311.296,136.74 C314.588,128.236 319.828,122.532 321.658,120.709 L321.789,120.584 L321.713,120.328 L321.421,120.425 L321.671,120.584 L321.678,120.577 L321.761,120.46 L321.436,119.288 C320.389,114.949 319.821,110.368 319.821,105.642 C319.821,90.152 325.809,76.29 335.269,66.857 L335.047,66.642 L334.819,66.857 L335.609,67.703 L335.83,67.488 L335.622,67.266 C327.389,75.41 322.032,88.842 322.032,105.101 L322.032,105.406 L338.762,105.406 L338.776,105.122 C339.413,93.166 343.177,83.775 348.556,78.251 L348.333,78.036 L348.112,78.244 L348.528,78.702 L348.756,78.494 L348.528,78.286 C346.005,81.037 343.759,87.296 343.752,93.16 C343.752,96.32 344.425,99.376 346.129,101.65 C347.821,103.937 350.579,105.42 354.599,105.406 L361.066,105.406 L363.123,91.046 L365.3,91.046 L365.3,90.741 L364.995,90.762 L365.3,90.741" id="Fill-32" fill="#FFFFFF" fill-rule="nonzero"></path>
            <path d="M362.762,41.747 C360.157,41.747 358.056,43.82 358.056,46.19 C358.056,48.567 359.949,50.889 362.554,50.889 L363.171,50.827 C369.776,50.827 378.516,56.136 378.516,56.136 L375.708,58.852 C372.056,57.931 368.155,57.431 364.093,57.431 C353.96,57.431 344.777,60.53 338.137,65.527 L338.034,65.43 L337.222,64.612 C339.967,62.193 346.925,57.418 346.925,57.418 L348.145,52.788 C348.145,52.788 343.044,50.272 340.494,47.978 C334.201,42.932 330.327,36.05 330.327,28.468 C330.327,15.14 342.288,3.995 358.333,1.112 L360.025,0.752 L359.428,1.466 C359.622,1.424 345.907,5.964 347.265,13.581 C347.875,16.997 350.467,14.967 353.426,14.953 C354.764,14.773 356.143,14.655 357.557,14.655 L357.814,14.669 C358.506,14.607 358.951,14.599 358.951,14.718 L358.951,16.887 C358.951,16.887 350.28,19.333 351.479,29.002 C351.479,29.002 361.854,25.252 362.831,30.159 C364.758,39.786 365.687,41.429 363.449,41.622 L362.762,41.747" id="Fill-33" fill="#FFFFFF" fill-rule="nonzero"></path>
            <path d="M362.682,41.707 L362.682,41.402 C359.93,41.402 357.699,43.578 357.692,46.129 C357.692,48.652 359.695,51.112 362.481,51.119 L362.495,51.119 L363.119,51.05 L363.083,50.744 L363.083,51.056 C366.292,51.05 370.077,52.353 373.057,53.67 C376.031,54.986 378.179,56.303 378.193,56.303 L378.352,56.04 L378.137,55.818 L375.351,58.528 L375.559,58.75 L375.635,58.452 C371.976,57.537 368.074,57.024 364.005,57.024 C353.859,57.024 344.668,60.129 338.015,65.147 L338.196,65.389 L338.396,65.16 L338.299,65.071 L337.502,64.274 L337.287,64.488 L337.482,64.724 C340.192,62.326 347.101,57.578 347.101,57.572 L347.199,57.502 L348.453,52.783 L348.508,52.547 L348.286,52.443 C348.28,52.436 343.227,49.927 340.753,47.688 C334.522,42.684 330.724,35.92 330.724,28.483 C330.724,15.419 342.479,4.392 358.336,1.543 L358.35,1.543 L358.364,1.536 L360.006,1.183 L359.958,0.871 L359.708,0.677 L359.133,1.398 L358.468,2.216 L359.466,1.883 L359.494,1.869 L359.375,1.606 L359.487,1.876 L359.494,1.869 L359.375,1.606 L359.487,1.876 L359.369,1.599 L359.369,1.904 L359.487,1.876 L359.369,1.599 L359.369,1.904 L359.583,1.807 L359.681,1.599 L359.583,1.377 L359.369,1.287 L359.154,1.377 L359.064,1.599 L359.175,1.363 L359.369,1.592 L359.251,1.315 L359.175,1.363 L359.369,1.592 L359.251,1.315 C359.182,1.384 346.949,5.376 346.866,12.584 L346.977,13.693 C347.219,15.328 348.12,15.966 349.181,15.931 C350.408,15.925 351.863,15.322 353.402,15.322 L353.443,15.322 C354.76,15.135 356.119,15.031 357.504,15.031 L357.747,15.045 L357.782,15.045 L358.53,14.996 L358.739,15.017 L358.759,14.899 L358.697,14.996 L358.739,15.017 L358.759,14.899 L358.697,14.996 L358.849,14.781 L358.578,14.781 L358.697,14.996 L358.849,14.781 L358.578,14.781 L358.578,16.944 L358.898,16.944 L358.815,16.645 C358.793,16.66 351.052,18.836 351.038,27.243 C351.038,27.818 351.073,28.428 351.149,29.052 L351.204,29.433 L351.558,29.308 C351.572,29.301 355.315,27.95 358.426,27.956 C360.492,27.971 362.12,28.511 362.446,30.223 C363.576,35.865 364.352,38.789 364.352,40.161 C364.289,41.104 364.193,41.139 363.327,41.277 L363.312,41.277 L362.62,41.409 L362.682,41.707 L362.682,41.402 L362.682,41.707 L362.744,42.012 L363.416,41.88 L363.361,41.589 L363.382,41.88 C364.366,41.867 365.025,41.257 364.962,40.161 C364.954,38.602 364.172,35.761 363.056,30.105 C362.613,27.956 360.547,27.326 358.426,27.347 C355.148,27.347 351.364,28.719 351.357,28.726 L351.453,29.017 L351.759,28.975 L351.648,27.243 C351.655,23.264 353.485,20.783 355.315,19.265 C356.236,18.503 357.151,18.004 357.851,17.678 C358.53,17.359 358.981,17.248 358.981,17.235 L359.203,17.172 L359.203,14.781 L358.87,14.414 L358.53,14.386 L357.733,14.428 L357.761,14.74 L357.775,14.428 L357.518,14.421 C356.09,14.421 354.704,14.532 353.36,14.712 L353.402,15.024 L353.402,14.712 C351.724,14.726 350.2,15.328 349.181,15.322 C348.342,15.28 347.877,15.079 347.573,13.596 L347.483,12.584 C347.476,9.341 350.408,6.637 353.436,4.773 C354.94,3.838 356.451,3.117 357.587,2.625 L358.953,2.07 L359.341,1.931 L359.445,1.89 L359.487,1.876 L359.494,1.869 L359.529,1.855 L359.57,1.827 L359.681,1.599 L359.583,1.377 L359.369,1.287 L359.154,1.377 L359.064,1.599 L359.369,1.599 L359.369,1.287 L359.251,1.315 L359.362,1.571 L359.265,1.301 L359.251,1.315 L359.362,1.571 L359.265,1.301 L359.369,1.599 L359.605,1.786 L360.194,1.072 L360.7,0.441 L359.91,0.573 L358.218,0.94 L358.281,1.239 L358.232,0.94 C342.173,3.817 330.115,15.017 330.115,28.483 C330.115,36.141 334.023,43.073 340.351,48.146 C342.936,50.481 348.002,52.976 348.016,52.99 L348.155,52.706 L347.85,52.63 L346.644,57.232 L346.935,57.308 L346.769,57.066 C346.755,57.066 339.852,61.82 337.079,64.266 L336.837,64.481 L337.87,65.514 L337.883,65.521 L337.995,65.625 L338.189,65.785 L338.382,65.639 C344.925,60.697 353.991,57.634 364.005,57.634 C368.018,57.634 371.879,58.133 375.49,59.041 L375.656,59.082 L378.567,56.255 L378.844,55.984 L378.512,55.769 C378.484,55.769 369.799,50.453 363.083,50.433 L363.07,50.433 L362.446,50.509 L362.481,50.814 L362.481,50.502 C360.089,50.502 358.301,48.347 358.301,46.129 C358.301,43.952 360.263,42.026 362.682,42.019 L362.709,42.019 L362.744,42.012 L362.682,41.707" id="Fill-34" fill="#FFFFFF" fill-rule="nonzero"></path>
            <path d="M383.51,125.022 C380.689,121.972 378.97,117.031 378.86,111.729 L376.17,111.729 C376.815,118.965 381.41,124.232 382.844,125.694 L383.06,125.916 L383.282,125.68 L383.51,125.431 L383.69,125.223 L383.51,125.022" id="Fill-35" fill="#FFFFFF" fill-rule="nonzero"></path>
            <path d="M383.393,124.902 L383.601,124.714 C380.918,121.776 379.262,116.98 379.158,111.816 L379.144,111.539 L375.956,111.539 L375.991,111.844 C376.621,119.066 381.14,124.278 382.547,125.747 L382.762,125.969 L382.963,126.184 L383.371,125.733 L383.601,125.484 L383.781,125.283 L383.94,125.095 L383.601,124.714 L383.393,124.902 L383.185,125.082 L383.199,125.102 L383.185,125.116 L382.963,125.366 L382.956,125.373 L382.949,125.366 C381.577,123.945 377.155,118.809 376.545,111.803 L376.268,111.823 L376.268,112.1 L378.874,112.1 L378.874,111.823 L378.597,111.823 C378.714,117.097 380.392,122.004 383.185,125.082 L383.393,124.902" id="Fill-36" fill="#FFFFFF" fill-rule="nonzero"></path>
            <path d="M353.603,131.881 L353.388,132.082 L353.187,131.874 L352.827,131.507 L352.605,131.299 L352.827,131.091 C357.325,126.641 359.057,119.433 359.189,111.726 L362.217,111.726 C361.579,119.96 358.461,127.341 353.603,131.881" id="Fill-37" fill="#FFFFFF" fill-rule="nonzero"></path>
            <path d="M353.708,131.757 L353.522,131.549 L353.514,131.562 L353.5,131.555 L353.154,131.195 L353.14,131.175 L353.154,131.168 C357.624,126.677 359.309,119.489 359.44,111.824 L359.162,111.824 L359.162,112.101 L362.116,112.101 L362.116,111.824 L361.838,111.796 C361.221,119.884 358.193,127.12 353.522,131.549 L353.708,131.757 L353.896,131.951 C358.705,127.404 361.762,120.037 362.393,111.845 L362.413,111.54 L358.893,111.54 L358.893,111.817 C358.761,119.406 357.056,126.469 352.759,130.772 L352.544,130.98 L352.35,131.175 L352.759,131.583 L353.113,131.944 L353.306,132.138 L353.487,132.339 L353.896,131.951 L353.708,131.757" id="Fill-38" fill="#FFFFFF" fill-rule="nonzero"></path>
            <path d="M349.624,125.022 C352.445,121.972 354.163,117.031 354.275,111.729 L356.964,111.729 C356.327,118.965 351.724,124.232 350.289,125.694 L350.068,125.916 L349.846,125.68 L349.624,125.431 L349.437,125.223 L349.624,125.022" id="Fill-39" fill="#FFFFFF" fill-rule="nonzero"></path>
            <path d="M349.738,124.902 L349.946,125.082 C352.739,122.004 354.41,117.097 354.534,111.823 L354.256,111.823 L354.256,112.1 L356.863,112.1 L356.863,111.823 L356.585,111.803 C355.982,118.809 351.554,123.945 350.195,125.366 L350.181,125.373 L350.161,125.366 L349.946,125.116 L349.925,125.102 L349.946,125.082 L349.738,124.902 L349.53,124.714 L349.357,124.915 L349.183,125.095 L349.53,125.484 L349.758,125.733 L349.966,125.969 L350.161,126.184 L350.59,125.747 C351.991,124.278 356.509,119.066 357.133,111.844 L357.167,111.539 L353.994,111.539 L353.987,111.816 C353.869,116.98 352.212,121.776 349.53,124.714 L349.738,124.902" id="Fill-40" fill="#FFFFFF" fill-rule="nonzero"></path>
            <path d="M404.728,125.9 C403.882,127.855 402.849,129.691 401.671,131.431 L401.851,129.795 C401.851,128.437 401.477,127.161 400.846,126.067 L400.944,127.12 C400.944,130.516 398.192,133.275 394.796,133.275 C391.4,133.275 388.649,130.516 388.649,127.12 C388.649,126.039 388.932,125.02 389.417,124.14 C387.844,125.519 386.839,127.536 386.839,129.795 L386.861,130.162 C389.57,130.8 391.594,133.233 391.594,136.137 L391.58,136.372 L391.538,136.761 C391.234,139.866 388.62,142.291 385.432,142.291 C384.199,142.291 383.055,141.924 382.092,141.3 L382.106,141.259 L381.448,140.76 L381.426,140.801 C380.123,139.672 379.291,138.001 379.291,136.137 C379.291,133.524 380.927,131.292 383.236,130.412 C382.238,130.53 381.302,130.869 380.463,131.355 L380.512,131.306 L380.304,131.091 L379.306,130.017 C375.542,125.54 374.052,118.859 373.927,111.727 L370.892,111.727 C371.53,119.961 374.648,127.342 379.507,131.881 L379.59,131.95 C377.829,133.316 376.706,135.444 376.706,137.842 C376.706,139.914 377.538,141.779 378.897,143.144 C378.065,143.56 377.143,143.809 376.152,143.809 C373.969,143.809 372.056,142.666 370.968,140.954 L370.566,140.198 C370.199,139.429 369.997,138.555 369.997,137.648 C369.997,134.591 372.237,132.048 375.182,131.576 L374.925,131.57 C370.774,131.57 367.426,134.931 367.426,139.075 C367.426,140.51 367.828,141.841 368.522,142.977 C367.482,143.775 366.193,144.281 364.786,144.281 C361.376,144.281 358.624,141.529 358.624,138.119 C358.624,135.499 360.267,133.267 362.575,132.387 C358.888,132.859 356.053,136.005 356.053,139.824 L356.178,141.245 C355.305,140.704 354.438,140.129 353.607,139.498 L342.441,150.664 C349.087,154.989 356.767,157.484 364.973,157.484 C383.249,157.484 399.003,145.16 406.232,127.432 L404.728,125.9" id="Fill-41" fill="#FFFFFF" fill-rule="nonzero"></path>
            <path d="M404.629,125.941 L404.372,125.83 C403.541,127.75 402.515,129.566 401.344,131.285 L401.573,131.444 L401.85,131.499 L402.044,129.815 C402.044,128.415 401.663,127.092 401.004,125.955 L400.492,126.121 L400.575,127.181 L400.852,127.161 L400.575,127.161 C400.575,130.384 397.962,133.004 394.732,133.004 C391.502,133.004 388.883,130.384 388.883,127.161 C388.883,126.121 389.153,125.158 389.618,124.312 L389.195,123.973 C387.573,125.393 386.519,127.487 386.519,129.815 L386.519,129.823 L386.54,130.197 L386.554,130.405 L386.762,130.453 C389.34,131.056 391.267,133.371 391.267,136.129 L391.26,136.358 L391.531,136.365 L391.26,136.337 L391.218,136.732 C390.92,139.685 388.446,141.986 385.417,141.986 C384.232,141.986 383.151,141.632 382.236,141.043 L382.083,141.279 L382.333,141.383 L382.354,141.341 L382.444,141.133 L381.606,140.51 L381.363,140.343 L381.19,140.62 L381.411,140.766 L381.598,140.572 C380.358,139.491 379.568,137.904 379.568,136.129 C379.568,133.648 381.12,131.527 383.325,130.682 L383.179,130.148 C382.153,130.28 381.19,130.633 380.316,131.125 L380.461,131.361 L380.662,131.562 L380.711,131.507 L380.906,131.312 L380.49,130.91 L379.512,129.85 C375.832,125.477 374.342,118.879 374.224,111.816 L374.217,111.546 L370.634,111.546 L370.655,111.844 C371.299,120.098 374.411,127.508 379.311,132.102 L379.387,132.165 L379.581,131.957 L379.409,131.735 C377.599,133.163 376.435,135.353 376.435,137.827 C376.435,139.962 377.301,141.896 378.708,143.303 L378.896,143.109 L378.778,142.859 C377.988,143.254 377.093,143.49 376.158,143.49 C374.092,143.49 372.27,142.408 371.23,140.78 L371.001,140.925 L371.244,140.801 L370.835,140.045 L370.585,140.177 L370.842,140.052 C370.502,139.324 370.315,138.507 370.315,137.64 C370.315,134.729 372.45,132.31 375.25,131.874 L375.208,131.319 L374.952,131.312 C370.655,131.312 367.19,134.778 367.19,139.061 C367.19,140.537 367.613,141.916 368.327,143.095 L368.569,142.949 L368.395,142.727 C367.398,143.49 366.184,143.954 364.833,143.954 C361.603,143.954 358.984,141.341 358.984,138.104 C358.984,135.616 360.542,133.495 362.726,132.65 L362.601,132.123 C358.81,132.616 355.858,135.866 355.858,139.796 L355.858,139.809 L355.996,141.251 L356.274,141.223 L356.419,140.981 C355.553,140.44 354.694,139.879 353.882,139.255 L353.681,139.102 L342.149,150.635 L342.44,150.823 C349.093,155.168 356.8,157.663 365.027,157.663 C383.366,157.663 399.14,145.32 406.39,127.57 L406.452,127.404 L404.83,125.747 L404.539,125.449 L404.372,125.83 L404.629,125.941 L404.428,126.128 L405.932,127.667 L406.12,127.466 L405.863,127.362 C398.69,144.931 383.11,157.109 365.027,157.109 C356.918,157.109 349.315,154.648 342.738,150.358 L342.585,150.601 L342.786,150.788 L353.897,139.671 L353.709,139.477 L353.55,139.699 C354.381,140.329 355.241,140.911 356.121,141.452 L356.606,141.757 L356.412,139.768 L356.135,139.796 L356.412,139.796 C356.412,136.143 359.143,133.135 362.677,132.664 L362.636,132.394 L362.538,132.13 C360.134,133.052 358.429,135.374 358.429,138.104 C358.429,141.646 361.298,144.515 364.833,144.515 C366.302,144.515 367.654,144.003 368.742,143.164 L368.929,143.012 L368.804,142.803 C368.132,141.716 367.737,140.433 367.737,139.061 C367.751,135.083 370.96,131.86 374.938,131.86 L375.188,131.874 L375.195,131.596 L375.153,131.319 C372.089,131.804 369.761,134.445 369.761,137.64 C369.761,138.59 369.969,139.491 370.336,140.295 L370.759,141.064 L370.759,141.071 L370.766,141.085 C371.896,142.859 373.891,144.051 376.158,144.051 C377.191,144.051 378.154,143.788 379.028,143.351 L379.36,143.178 L379.089,142.914 C377.793,141.605 376.996,139.809 376.996,137.827 C376.996,135.526 378.071,133.495 379.747,132.179 L379.997,131.971 L379.686,131.687 C374.924,127.23 371.84,119.946 371.209,111.796 L370.932,111.823 L370.932,112.1 L373.947,112.1 L373.947,111.823 L373.669,111.83 C373.787,118.955 375.278,125.671 379.104,130.218 L380.087,131.285 L380.316,131.507 L380.51,131.312 L380.316,131.118 L380.261,131.16 L380.601,131.603 C381.405,131.139 382.291,130.82 383.248,130.696 L383.22,130.425 L383.117,130.162 C380.718,131.091 379.02,133.406 379.02,136.129 C379.02,138.07 379.872,139.809 381.231,140.974 L381.467,141.189 L381.508,141.133 L381.938,141.452 L382.097,141.23 L381.841,141.113 L381.828,141.168 L381.745,141.383 L381.938,141.508 C382.929,142.152 384.121,142.54 385.417,142.54 C388.737,142.54 391.44,140.017 391.773,136.781 L391.8,136.4 L391.8,136.393 L391.822,136.143 C391.822,133.1 389.707,130.578 386.886,129.912 L386.825,130.176 L387.101,130.162 L387.08,129.802 L386.81,129.815 L387.08,129.815 C387.08,127.653 388.044,125.712 389.555,124.395 L389.374,124.18 L389.132,124.042 C388.626,124.964 388.328,126.024 388.328,127.161 C388.328,130.696 391.191,133.558 394.732,133.558 C398.26,133.558 401.136,130.696 401.136,127.161 L401.136,127.14 L401.039,126.073 L400.762,126.094 L400.519,126.239 C401.129,127.285 401.476,128.512 401.476,129.815 L401.295,131.382 L401.816,131.603 C402.987,129.85 404.034,128.007 404.886,126.045 L404.629,125.941 L404.428,126.128 L404.629,125.941" id="Fill-42" fill="#FFFFFF" fill-rule="nonzero"></path>
            <path d="M9.744,221.879 C9.072,221.422 8.178,221.006 7.284,221.006 C6.001,221.006 5.308,221.726 5.308,222.621 C5.308,223.626 6.375,224.388 8.157,225.802 C10.201,227.43 11.296,228.726 11.296,230.584 C11.296,232.504 9.46,234.728 6.022,234.728 C4.435,234.728 2.667,234.251 1.538,233.197 L2.647,231.458 C3.451,232.053 4.393,232.684 5.766,232.684 C7.027,232.684 8.129,232.005 8.129,230.57 C8.129,228.893 6.091,227.777 4.865,226.814 C3.395,225.622 2.148,224.686 2.148,222.662 C2.148,220.618 4.22,218.962 6.978,218.962 C8.725,218.962 10.118,219.592 10.832,220.285 L9.744,221.879" id="Fill-43" fill="#FFFFFF" fill-rule="nonzero"></path>
            <path d="M9.678,221.941 L9.858,221.684 C9.158,221.213 8.244,220.776 7.273,220.769 C6.587,220.769 6.033,220.97 5.644,221.317 L5.041,222.676 C5.076,223.909 6.22,224.651 7.938,226.057 C9.92,227.652 10.877,228.837 10.877,230.542 C10.877,232.24 9.262,234.312 6.039,234.312 C4.556,234.319 2.9,233.847 1.874,232.898 L1.673,233.113 L1.93,233.279 L3.011,231.56 L2.754,231.394 L2.567,231.643 C3.357,232.226 4.355,232.912 5.79,232.912 C6.462,232.912 7.107,232.732 7.599,232.323 C8.098,231.935 8.416,231.304 8.416,230.514 C8.368,228.581 6.247,227.513 5.104,226.578 C3.648,225.379 2.574,224.567 2.567,222.724 C2.574,220.922 4.397,219.37 6.982,219.37 C8.604,219.37 9.907,219.972 10.531,220.596 L10.739,220.375 L10.489,220.194 L9.429,221.774 L9.678,221.941 L9.858,221.684 L9.678,221.941 L9.934,222.114 L10.995,220.541 L11.147,220.326 L10.96,220.153 C10.184,219.397 8.756,218.76 6.982,218.753 C4.168,218.76 1.971,220.471 1.964,222.724 C1.95,224.873 3.302,225.898 4.723,227.055 C5.977,228.026 7.841,229.135 7.807,230.514 C7.786,231.748 6.927,232.274 5.79,232.296 C4.556,232.289 3.718,231.727 2.934,231.144 L2.671,230.951 L1.41,232.954 L1.271,233.162 L1.458,233.342 C2.65,234.444 4.438,234.922 6.039,234.928 C9.546,234.922 11.494,232.628 11.494,230.542 C11.494,228.553 10.323,227.18 8.327,225.572 C6.552,224.179 5.61,223.403 5.651,222.676 C5.665,221.962 6.137,221.414 7.273,221.393 C8.056,221.387 8.881,221.767 9.512,222.19 L9.754,222.363 L9.934,222.114 L9.678,221.941" id="Fill-44" fill="#FFFFFF" fill-rule="nonzero"></path>
            <polyline id="Fill-45" fill="#FFFFFF" fill-rule="nonzero" points="24.81 234.463 24.81 221.273 20.104 221.273 20.104 219.228 32.579 219.228 32.579 221.273 27.88 221.273 27.88 234.463 24.81 234.463"></polyline>
            <polyline id="Fill-46" fill="#FFFFFF" fill-rule="nonzero" points="24.832 234.364 25.144 234.364 25.144 221.036 20.521 221.036 20.521 219.623 32.172 219.623 32.172 221.036 27.549 221.036 27.549 234.053 24.832 234.053 24.832 234.364 25.144 234.364 24.832 234.364 24.832 234.669 28.166 234.669 28.166 221.653 32.795 221.653 32.795 219.019 19.897 219.019 19.897 221.653 24.527 221.653 24.527 234.669 24.832 234.669 24.832 234.364"></polyline>
            <polyline id="Fill-47" fill="#FFFFFF" fill-rule="nonzero" points="50.269 221.27 45.154 221.27 45.154 225.449 50.159 225.449 50.159 227.501 45.154 227.501 45.154 232.422 51.205 232.422 51.205 234.459 42.084 234.459 42.084 219.219 50.269 219.219 50.269 221.27"></polyline>
            <polyline id="Fill-48" fill="#FFFFFF" fill-rule="nonzero" points="50.182 221.343 50.182 221.038 44.88 221.038 44.88 225.778 49.766 225.778 49.766 227.185 44.88 227.185 44.88 232.646 50.792 232.646 50.792 234.053 42.489 234.053 42.489 219.631 49.877 219.631 49.877 221.343 50.182 221.343 50.182 221.038 50.182 221.343 50.494 221.343 50.494 219.013 41.879 219.013 41.879 234.671 51.409 234.671 51.409 232.037 45.483 232.037 45.483 227.796 50.383 227.796 50.383 225.154 45.483 225.154 45.483 221.647 50.494 221.647 50.494 221.343 50.182 221.343"></polyline>
            <path d="M66.572,219.22 C72.775,219.22 74.903,222.727 74.903,226.408 C74.903,231.432 71.686,234.454 66.287,234.454 L61.297,234.454 L61.297,219.22 L66.572,219.22 Z M64.368,232.417 L66.246,232.417 C69.746,232.417 71.645,230.629 71.645,226.387 C71.645,223.226 69.822,221.272 66.593,221.272 L64.368,221.272 L64.368,232.417 L64.368,232.417 Z" id="Fill-49" fill="#FFFFFF" fill-rule="nonzero"></path>
            <path d="M66.594,219.323 L66.594,219.628 C72.582,219.656 74.467,222.913 74.509,226.413 C74.474,231.223 71.514,234.03 66.317,234.051 L61.708,234.051 L61.708,219.628 L66.594,219.628 L66.594,219.018 L61.097,219.018 L61.097,234.668 L66.317,234.668 C69.027,234.668 71.238,233.898 72.762,232.47 C74.294,231.043 75.112,228.957 75.112,226.413 C75.112,224.542 74.571,222.678 73.206,221.299 C71.854,219.898 69.706,219.018 66.594,219.018 L66.594,219.323 Z M64.417,232.345 L64.417,232.651 L66.268,232.651 C68.049,232.651 69.477,232.193 70.447,231.147 C71.425,230.1 71.903,228.534 71.903,226.392 C71.903,224.777 71.425,223.433 70.51,222.49 C69.602,221.548 68.257,221.035 66.615,221.035 L64.119,221.035 L64.119,232.651 L64.417,232.651 L64.417,232.345 L64.736,232.345 L64.736,221.652 L66.615,221.652 C69.657,221.679 71.258,223.405 71.286,226.392 C71.23,230.488 69.609,231.992 66.268,232.034 L64.417,232.034 L64.417,232.345 L64.736,232.345 L64.417,232.345 L64.417,232.345 Z" id="Fill-50" fill="#FFFFFF" fill-rule="nonzero"></path>
            <polyline id="Fill-51" fill="#FFFFFF" fill-rule="nonzero" points="93.3 221.27 88.185 221.27 88.185 225.449 93.188 225.449 93.188 227.501 88.185 227.501 88.185 232.422 94.228 232.422 94.228 234.459 85.114 234.459 85.114 219.219 93.3 219.219 93.3 221.27"></polyline>
            <polyline id="Fill-52" fill="#FFFFFF" fill-rule="nonzero" points="93.212 221.343 93.212 221.038 87.91 221.038 87.91 225.778 92.803 225.778 92.803 227.185 87.91 227.185 87.91 232.646 93.822 232.646 93.822 234.053 85.519 234.053 85.519 219.631 92.907 219.631 92.907 221.343 93.212 221.343 93.212 221.038 93.212 221.343 93.524 221.343 93.524 219.013 84.909 219.013 84.909 234.671 94.439 234.671 94.439 232.037 88.52 232.037 88.52 227.796 93.413 227.796 93.413 225.154 88.52 225.154 88.52 221.647 93.524 221.647 93.524 221.343 93.212 221.343"></polyline>
            <polyline id="Fill-53" fill="#FFFFFF" fill-rule="nonzero" points="104.322 219.22 107.392 219.22 107.392 232.417 113.443 232.417 113.443 234.454 104.322 234.454 104.322 219.22"></polyline>
            <polyline id="Fill-54" fill="#FFFFFF" fill-rule="nonzero" points="104.42 219.323 104.42 219.628 107.117 219.628 107.117 232.651 113.036 232.651 113.036 234.051 104.732 234.051 104.732 219.323 104.42 219.323 104.42 219.628 104.42 219.323 104.116 219.323 104.116 234.668 113.652 234.668 113.652 232.034 107.733 232.034 107.733 219.018 104.116 219.018 104.116 219.323 104.42 219.323"></polyline>
            <polygon id="Fill-55" fill="#FFFFFF" fill-rule="nonzero" points="123.034 234.453 126.098 234.453 126.098 219.22 123.034 219.22"></polygon>
            <polyline id="Fill-56" fill="#FFFFFF" fill-rule="nonzero" points="123.141 234.364 123.446 234.364 123.446 219.623 125.691 219.623 125.691 234.053 123.141 234.053 123.141 234.364 123.446 234.364 123.141 234.364 123.141 234.669 126.308 234.669 126.308 219.019 122.829 219.019 122.829 234.669 123.141 234.669 123.141 234.364"></polyline>
            <path d="M140.275,219.22 L140.275,233.484 C140.275,236.88 138.41,238.598 135.686,238.598 L135.686,236.797 L136.747,236.007 C137.01,235.55 137.204,234.51 137.204,233.442 L137.204,219.22 L140.275,219.22" id="Fill-57" fill="#FFFFFF" fill-rule="nonzero"></path>
            <path d="M140.173,219.323 L139.868,219.323 L139.868,233.434 C139.833,236.684 138.232,238.161 135.779,238.188 L135.779,238.501 L136.098,238.501 L136.098,236.705 L135.779,236.705 L135.882,236.997 L137.075,236.075 C137.372,235.527 137.539,234.495 137.546,233.392 L137.546,219.628 L140.173,219.628 L140.173,219.323 L139.868,219.323 L140.173,219.323 L140.173,219.018 L136.936,219.018 L136.936,233.392 C136.936,234.411 136.735,235.437 136.534,235.784 L135.695,236.414 L135.474,236.483 L135.474,238.805 L135.779,238.805 C137.158,238.805 138.343,238.347 139.175,237.433 C140.02,236.512 140.477,235.167 140.477,233.434 L140.477,219.018 L140.173,219.018 L140.173,219.323" id="Fill-58" fill="#FFFFFF" fill-rule="nonzero"></path>
            <polyline id="Fill-59" fill="#FFFFFF" fill-rule="nonzero" points="154.383 225.817 154.424 225.817 159.892 219.012 162.325 219.898 157.19 226.039 163.372 233.849 160.239 234.675 154.424 226.753 154.383 226.753 154.383 234.46 151.312 234.46 151.312 219.226 154.383 219.226 154.383 225.817"></polyline>
            <polyline id="Fill-60" fill="#FFFFFF" fill-rule="nonzero" points="154.415 225.835 154.415 226.14 154.602 226.14 159.897 219.494 161.672 220.152 156.758 226.05 162.677 233.57 160.265 234.215 154.609 226.452 154.103 226.452 154.103 234.041 151.719 234.041 151.719 219.639 154.103 219.639 154.103 226.14 154.415 226.14 154.415 225.835 154.713 225.835 154.713 219.043 151.102 219.043 151.102 234.658 154.713 234.658 154.713 226.763 154.415 226.763 154.415 227.054 154.45 227.054 154.45 226.763 154.207 226.937 160.008 234.915 163.28 234.048 163.723 233.93 157.541 226.056 162.69 219.861 159.904 218.835 159.689 218.759 154.214 225.648 154.45 225.835 154.45 225.53 154.415 225.53 154.415 225.835 154.713 225.835 154.415 225.835"></polyline>
            <polyline id="Fill-61" fill="#FFFFFF" fill-rule="nonzero" points="181.019 221.27 175.904 221.27 175.904 225.449 180.908 225.449 180.908 227.501 175.904 227.501 175.904 232.422 181.954 232.422 181.954 234.459 172.833 234.459 172.833 219.219 181.019 219.219 181.019 221.27"></polyline>
            <polyline id="Fill-62" fill="#FFFFFF" fill-rule="nonzero" points="180.938 221.343 180.938 221.038 175.629 221.038 175.629 225.778 180.53 225.778 180.53 227.185 175.629 227.185 175.629 232.646 181.548 232.646 181.548 234.053 173.245 234.053 173.245 219.631 180.634 219.631 180.634 221.343 180.938 221.343 180.938 221.038 180.938 221.343 181.244 221.343 181.244 219.013 172.628 219.013 172.628 234.671 182.158 234.671 182.158 232.037 176.246 232.037 176.246 227.796 181.14 227.796 181.14 225.154 176.246 225.154 176.246 221.647 181.244 221.647 181.244 221.343 180.938 221.343"></polyline>
            <path d="M215.553,221.879 C214.873,221.422 213.979,221.006 213.085,221.006 C211.81,221.006 211.11,221.726 211.11,222.621 C211.11,223.626 212.177,224.388 213.966,225.802 C216.01,227.43 217.105,228.726 217.105,230.584 C217.105,232.504 215.262,234.728 211.824,234.728 C210.244,234.728 208.476,234.251 207.34,233.197 L208.455,231.458 C209.259,232.053 210.195,232.684 211.567,232.684 C212.829,232.684 213.938,232.005 213.938,230.57 C213.938,228.893 211.9,227.777 210.673,226.814 C209.197,225.622 207.956,224.686 207.956,222.662 C207.956,220.618 210.022,218.962 212.787,218.962 C214.527,218.962 215.92,219.592 216.634,220.285 L215.553,221.879" id="Fill-63" fill="#FFFFFF" fill-rule="nonzero"></path>
            <path d="M215.491,221.941 L215.664,221.684 C214.971,221.213 214.057,220.776 213.079,220.769 C212.407,220.769 211.839,220.97 211.451,221.317 L210.848,222.676 C210.889,223.909 212.033,224.651 213.738,226.057 C215.727,227.652 216.683,228.83 216.683,230.542 C216.683,232.247 215.075,234.312 211.852,234.312 C210.362,234.319 208.706,233.847 207.687,232.898 L207.479,233.113 L207.728,233.279 L208.817,231.56 L208.56,231.394 L208.38,231.643 C209.17,232.233 210.154,232.912 211.596,232.912 C212.268,232.912 212.92,232.732 213.412,232.323 C213.897,231.935 214.223,231.304 214.223,230.514 C214.174,228.581 212.054,227.513 210.924,226.578 C209.448,225.379 208.38,224.567 208.38,222.724 C208.38,220.922 210.203,219.37 212.788,219.37 C214.416,219.37 215.713,219.972 216.336,220.596 L216.544,220.375 L216.295,220.194 L215.235,221.774 L215.491,221.941 L215.664,221.684 L215.491,221.941 L215.741,222.107 L216.808,220.541 L216.947,220.326 L216.766,220.153 C215.99,219.397 214.556,218.76 212.788,218.753 C209.974,218.76 207.77,220.471 207.756,222.724 C207.756,224.873 209.101,225.898 210.529,227.055 C211.776,228.026 213.647,229.135 213.606,230.514 C213.592,231.748 212.733,232.274 211.596,232.296 C210.362,232.289 209.524,231.727 208.74,231.144 L208.477,230.951 L207.216,232.954 L207.084,233.162 L207.271,233.342 C208.449,234.444 210.245,234.922 211.852,234.928 C215.352,234.922 217.293,232.628 217.3,230.542 C217.3,228.553 216.136,227.18 214.133,225.572 C212.365,224.179 211.416,223.403 211.457,222.676 C211.471,221.962 211.95,221.414 213.079,221.393 C213.862,221.387 214.687,221.767 215.318,222.19 L215.567,222.363 L215.741,222.107 L215.491,221.941" id="Fill-64" fill="#FFFFFF" fill-rule="nonzero"></path>
            <path d="M238.489,221.984 C237.74,221.596 236.506,221.138 235.328,221.138 C232.188,221.138 229.929,223.336 229.929,226.795 C229.929,230.419 232.431,232.547 235.418,232.547 C236.59,232.547 237.678,232.221 238.489,231.785 L239.327,233.683 C238.399,234.218 236.763,234.723 235.28,234.723 C229.992,234.723 226.658,231.244 226.658,226.746 C226.658,222.595 229.971,218.956 235.328,218.956 C236.915,218.956 238.399,219.531 239.438,220.14 L238.489,221.984" id="Fill-65" fill="#FFFFFF" fill-rule="nonzero"></path>
            <path d="M238.365,222.051 L238.503,221.78 C237.755,221.378 236.5,220.914 235.273,220.907 C233.659,220.907 232.238,221.475 231.246,222.508 C230.242,223.533 229.66,225.023 229.666,226.791 C229.66,228.648 230.304,230.159 231.344,231.192 C232.383,232.231 233.818,232.779 235.35,232.779 C236.562,232.779 237.678,232.439 238.517,231.989 L238.365,231.719 L238.087,231.844 L238.919,233.715 L239.203,233.596 L239.051,233.327 C238.184,233.833 236.611,234.317 235.225,234.31 C230.179,234.297 227.081,231.025 227.067,226.757 C227.074,222.827 230.159,219.375 235.273,219.368 C236.756,219.368 238.163,219.909 239.155,220.484 L239.307,220.22 L239.044,220.082 L238.094,221.912 L238.365,222.051 L238.503,221.78 L238.365,222.051 L238.641,222.182 L239.578,220.366 L239.716,220.102 L239.459,219.957 C238.399,219.334 236.895,218.759 235.273,218.759 C229.86,218.759 226.464,222.487 226.457,226.757 C226.457,229.044 227.303,231.095 228.835,232.564 C230.359,234.041 232.563,234.928 235.225,234.928 C236.75,234.921 238.378,234.422 239.349,233.853 L239.591,233.715 L238.649,231.594 L238.517,231.296 L238.219,231.441 C237.477,231.857 236.445,232.177 235.35,232.177 C232.57,232.155 230.29,230.215 230.276,226.791 C230.29,223.519 232.349,221.537 235.273,221.516 C236.341,221.516 237.533,221.946 238.226,222.32 L238.496,222.467 L238.641,222.182 L238.365,222.051" id="Fill-66" fill="#FFFFFF" fill-rule="nonzero"></path>
            <polyline id="Fill-67" fill="#FFFFFF" fill-rule="nonzero" points="263.302 234.463 260.232 234.463 260.232 227.123 253.849 227.123 253.849 234.463 250.778 234.463 250.778 219.228 253.849 219.228 253.849 225.078 260.232 225.078 260.232 219.27 263.302 219.27 263.302 234.463"></polyline>
            <polyline id="Fill-68" fill="#FFFFFF" fill-rule="nonzero" points="263.2 234.364 263.2 234.053 260.482 234.053 260.482 226.816 253.594 226.816 253.594 234.053 251.188 234.053 251.188 219.623 253.594 219.623 253.594 225.41 260.482 225.41 260.482 219.678 262.888 219.678 262.888 234.364 263.2 234.364 263.2 234.053 263.2 234.364 263.504 234.364 263.504 219.061 259.866 219.061 259.866 224.8 254.204 224.8 254.21 219.324 254.21 219.019 250.572 219.019 250.572 234.669 254.21 234.669 254.21 227.427 259.866 227.427 259.866 234.669 263.504 234.669 263.504 234.364 263.2 234.364"></polyline>
            <path d="M271.874,226.63 C271.874,222.361 275.097,218.958 279.477,218.958 C283.85,218.958 287.073,222.361 287.073,226.63 C287.073,231.177 284.155,234.725 279.477,234.725 C274.792,234.725 271.874,231.177 271.874,226.63 M283.808,226.63 C283.808,223.809 282.534,221.141 279.477,221.141 C276.427,221.141 275.138,223.809 275.138,226.63 C275.138,229.541 276.275,232.549 279.477,232.549 C282.679,232.549 283.808,229.541 283.808,226.63" id="Fill-69" fill="#FFFFFF" fill-rule="nonzero"></path>
            <path d="M271.976,226.63 L272.287,226.63 C272.295,222.568 275.323,219.374 279.475,219.367 C283.62,219.374 286.655,222.568 286.662,226.63 C286.648,230.989 283.917,234.303 279.475,234.316 C275.025,234.303 272.302,230.989 272.287,226.63 L271.671,226.63 C271.671,228.938 272.412,231.011 273.771,232.514 C275.122,234.018 277.091,234.927 279.475,234.927 C281.859,234.927 283.828,234.018 285.179,232.514 C286.537,231.011 287.279,228.938 287.279,226.63 C287.272,222.263 283.959,218.77 279.475,218.763 C274.997,218.77 271.671,222.263 271.671,226.63 L271.976,226.63 Z M283.745,226.63 L284.056,226.63 C284.049,225.195 283.73,223.781 282.996,222.715 C282.261,221.626 281.069,220.898 279.475,220.904901 C277.881,220.898 276.689,221.626 275.954,222.715 C275.22,223.781 274.901,225.195 274.893,226.63 C274.901,228.106 275.171,229.624 275.885,230.796 C276.599,231.967 277.798,232.785 279.475,232.778089 C281.159,232.785 282.344,231.967 283.058,230.796 C283.772,229.624 284.049,228.106 284.056,226.63 L283.439,226.63 C283.439,228.03 283.162,229.444 282.538,230.47 C281.894,231.503 280.958,232.161 279.475,232.168 C277.992,232.161 277.049,231.503 276.411,230.47 C275.781,229.437 275.511,228.03 275.511,226.63 C275.531,223.92 276.696,221.529 279.475,221.529 C282.254,221.529 283.418,223.92 283.439,226.63 L283.745,226.63 L283.745,226.63 Z" id="Fill-70" fill="#FFFFFF" fill-rule="nonzero"></path>
            <polyline id="Fill-71" fill="#FFFFFF" fill-rule="nonzero" points="301.77 222.284 304.314 224.065 296.544 234.821 301.569 238.329 300.37 239.992 292.781 234.724 301.77 222.284"></polyline>
            <polyline id="Fill-72" fill="#FFFFFF" fill-rule="nonzero" points="301.69 222.423 301.517 222.678 303.748 224.245 296.166 234.836 301.066 238.287 300.248 239.43 293.359 234.586 301.94 222.602 301.69 222.423 301.517 222.678 301.69 222.423 301.433 222.242 292.493 234.731 300.401 240.276 301.745 238.384 301.925 238.135 297.026 234.69 304.601 224.099 301.87 222.166 301.62 222 301.433 222.242 301.69 222.423"></polyline>
            <polyline id="Fill-73" fill="#FFFFFF" fill-rule="nonzero" points="323.284 237.204 318.598 234.959 316.734 238.722 321.315 240.905 320.393 242.756 315.812 240.552 313.608 244.98 319.153 247.636 318.231 249.471 309.879 245.466 316.699 231.77 324.205 235.368 323.284 237.204"></polyline>
            <polyline id="Fill-74" fill="#FFFFFF" fill-rule="nonzero" points="323.161 237.262 323.291 236.978 318.703 234.767 318.426 234.636 316.458 238.607 316.32 238.891 320.818 241.053 320.187 242.308 315.966 240.277 315.689 240.145 313.402 244.775 313.263 245.053 318.697 247.666 318.073 248.933 310.428 245.24 316.86 232.314 323.652 235.586 322.89 237.124 323.161 237.262 323.291 236.978 323.161 237.262 323.437 237.401 324.338 235.586 324.477 235.302 316.576 231.503 309.603 245.524 318.35 249.752 319.383 247.666 319.514 247.375 314.094 244.768 315.98 240.964 320.201 242.994 320.471 243.133 321.503 241.047 321.642 240.769 317.151 238.6 318.71 235.454 323.036 237.54 323.306 237.665 323.437 237.401 323.161 237.262"></polyline>
            <path d="M342.606,257.135 L340.415,256.581 C338.44,252.443 336.457,248.34 334.642,243.794 L334.593,243.78 L331.78,254.356 L329.347,253.746 L333.284,238.983 L335.501,239.552 C337.47,243.662 339.445,247.751 341.268,252.262 L341.31,252.277 L344.11,241.756 L346.529,242.38 L342.606,257.135" id="Fill-75" fill="#FFFFFF" fill-rule="nonzero"></path>
            <path d="M342.536,257.015 L342.613,256.731 L340.45,256.163 L340.38,256.468 L340.651,256.329 C338.71,252.254 336.756,248.213 334.982,243.736 L334.912,243.591 L334.718,243.549 L334.427,243.466 L331.648,253.903 L329.853,253.439 L333.575,239.487 L335.459,239.966 L335.529,239.668 L335.259,239.813 C337.2,243.86 339.147,247.874 340.928,252.323 L340.984,252.469 L341.185,252.524 L341.476,252.594 L344.241,242.218 L346.03,242.682 L342.238,256.939 L342.536,257.015 L342.613,256.731 L342.536,257.015 L342.828,257.092 L346.778,242.246 L344.095,241.553 L343.79,241.47 L340.955,252.15 L341.261,252.22 L341.33,251.928 L341.288,251.914 L341.212,252.212 L341.496,252.108 C339.688,247.624 337.761,243.591 335.806,239.536 L335.751,239.411 L333.429,238.815 L333.138,238.732 L329.104,253.883 L331.8,254.576 L332.091,254.652 L334.947,243.923 L334.649,243.84 L334.573,244.137 L334.615,244.144 L334.684,243.846 L334.407,243.965 C336.202,248.456 338.149,252.524 340.104,256.599 L340.165,256.731 L342.46,257.306 L342.758,257.389 L342.828,257.092 L342.536,257.015" id="Fill-76" fill="#FFFFFF" fill-rule="nonzero"></path>
            <g id="Group-80" transform="translate(353.000000, 243.000000)" fill="#FFFFFF" fill-rule="nonzero">
                <path d="M14.641,9.425 L14.793,15.711 C13.151,16.3 11.404,16.729 9.622,16.778 C4.265,16.902 0.78,13.5 0.675,9.015 C0.571,4.85 3.849,1.142 9.331,1.011 C11.036,0.969 12.755,1.454 13.788,2.078 L12.846,3.907 C11.986,3.492 10.662,3.152 9.47,3.186 C6.144,3.262 3.918,5.515 3.995,8.98 C4.092,12.592 6.753,14.664 9.443,14.595 C10.281,14.574 10.967,14.476 11.632,14.178 L11.515,9.494 L14.641,9.425" id="Fill-77"></path>
                <path d="M14.545,9.413 L14.234,9.428 L14.379,15.63 L14.684,15.623 L14.587,15.345 C12.979,15.9 11.302,16.323 9.597,16.358 L9.313,16.372 C4.329,16.35 1.197,13.19 1.079,9.005 L1.079,8.817 C1.086,4.97 4.136,1.553 9.313,1.422 L9.5,1.408 C11.059,1.408 12.625,1.866 13.547,2.427 L13.693,2.171 L13.423,2.025 L12.495,3.834 L12.757,3.979 L12.896,3.702 C12.036,3.279 10.783,2.947 9.59,2.947 L9.431,2.947 C6.083,3.01 3.727,5.331 3.734,8.789 L3.734,8.99 C3.837,12.65 6.534,14.846 9.299,14.833 L9.416,14.833 C10.269,14.805 10.997,14.701 11.697,14.389 L11.877,14.306 L11.766,9.787 L14.545,9.725 L14.545,9.413 L14.234,9.428 L14.545,9.413 L14.525,9.108 L11.448,9.191 L11.143,9.191 L11.26,14.112 L11.566,14.105 L11.441,13.828 C10.844,14.098 10.221,14.202 9.41,14.223 L9.299,14.223 C6.853,14.209 4.454,12.324 4.365,8.97 L4.365,8.789 C4.371,5.622 6.374,3.654 9.458,3.57 L9.59,3.57 C10.671,3.57 11.87,3.883 12.625,4.25 L12.896,4.375 L13.977,2.303 L14.116,2.053 L13.86,1.9 C12.806,1.262 11.177,0.805 9.5,0.805 L9.299,0.805 C3.844,0.923 0.455,4.617 0.461978387,8.817 L0.461978387,9.025 C0.566,13.53 4.06,17.003 9.313,16.9812069 L9.604,16.9812069 C11.406,16.94 13.16,16.496 14.795,15.907 L15.003,15.838 L14.851,9.406 L14.836,9.101 L14.525,9.108 L14.545,9.413" id="Fill-79"></path>
            </g>
            <polyline id="Fill-81" fill="#FFFFFF" fill-rule="nonzero" points="387.109 243.702 381.988 244.589 382.722 248.706 387.746 247.833 388.107 249.856 383.082 250.722 383.955 255.574 390.02 254.513 390.38 256.531 381.232 258.111 378.542 243.106 386.748 241.692 387.109 243.702"></polyline>
            <polyline id="Fill-82" fill="#FFFFFF" fill-rule="nonzero" points="387.054 243.79 387.005 243.492 381.974 244.365 381.675 244.421 382.452 248.78 382.5 249.078 387.428 248.225 387.684 249.604 383.048 250.402 382.756 250.465 383.658 255.538 383.713 255.849 389.66 254.803 389.903 256.182 381.543 257.637 379.014 243.443 386.457 242.161 386.763 243.852 387.054 243.79 387.005 243.492 387.054 243.79 387.359 243.734 387.005 241.745 386.95 241.454 378.3 242.944 381.051 258.345 390.616 256.681 390.207 254.394 390.152 254.095 384.205 255.136 383.463 250.956 388.086 250.159 388.384 250.104 387.976 247.816 387.934 247.512 382.999 248.371 382.396 244.92 387.109 244.088 387.414 244.047 387.359 243.734 387.054 243.79"></polyline>
            <path d="M418.839,246.641 L415.962,247.834 L411.249,236.889 L411.201,236.911 C411.319,241.47 411.201,245.678 411.104,249.857 L409.551,250.502 C406.509,247.626 403.439,244.742 400.257,241.45 L400.216,241.47 L404.936,252.415 L402.627,253.378 L396.578,239.344 L400.139,237.86 C403.092,240.695 407.819,245.214 409.157,246.794 L409.191,246.766 C409.06,244.603 409.302,238.124 409.441,233.993 L412.795,232.599 L418.839,246.641" id="Fill-83" fill="#FFFFFF" fill-rule="nonzero"></path>
            <path d="M418.707,246.594 L418.59,246.316 L416.019,247.377 L411.375,236.593 L411.063,236.689 L410.848,236.759 L410.848,236.987 C410.89,238.325 410.904,239.635 410.904,240.91 C410.904,243.939 410.828,246.864 410.758,249.761 L411.063,249.767 L410.953,249.476 L409.413,250.121 L409.525,250.405 L409.733,250.177 C406.732,247.342 403.696,244.501 400.57,241.257 L400.424,241.104 L400.182,241.216 L399.905,241.333 L404.569,252.131 L402.857,252.845 L397.112,239.545 L400.341,238.214 L400.223,237.929 L400.008,238.144 C402.926,240.938 407.612,245.408 408.901,246.933 L409.046,247.106 L409.296,247.003 L409.496,246.912 L409.476,246.697 C409.462,246.267 409.442,245.637 409.442,244.868 C409.442,242.012 409.608,237.341 409.726,234.125 L409.427,234.111 L409.545,234.395 L412.567,233.14 L418.423,246.711 L418.707,246.594 L418.59,246.316 L418.707,246.594 L418.985,246.475 L412.893,232.344 L409.303,233.834 L409.122,233.903 L409.122,234.097 C408.997,237.32 408.831,241.991 408.831,244.868 C408.831,245.644 408.845,246.274 408.867,246.746 L409.171,246.719 L409.06,246.434 L409.004,246.455 L409.136,246.746 L409.365,246.538 C408.028,244.951 403.363,240.515 400.431,237.701 L400.292,237.569 L396.592,239.108 L396.315,239.226 L402.532,253.635 L405.089,252.582 L405.38,252.457 L400.598,241.361 L400.307,241.492 L400.431,241.769 L400.48,241.749 L400.341,241.471 L400.126,241.686 C403.273,244.944 406.309,247.793 409.324,250.62 L409.462,250.765 L411.174,250.045 L411.369,249.975 L411.369,249.781 C411.445,246.871 411.514,243.96 411.514,240.91 C411.514,239.635 411.507,238.311 411.465,236.98 L411.167,236.98 L411.257,237.278 L411.299,237.264 L411.208,236.967 L410.924,237.092 L415.7,248.18 L418.826,246.878 L419.117,246.766 L418.985,246.475 L418.707,246.594" id="Fill-84" fill="#FFFFFF" fill-rule="nonzero"></path>
            <polyline id="Fill-85" fill="#FFFFFF" fill-rule="nonzero" points="429.333 224.413 425.05 227.338 427.476 230.782 431.676 227.906 432.861 229.591 428.675 232.453 431.537 236.493 436.596 233.042 437.788 234.725 430.151 239.93 421.286 227.414 428.141 222.736 429.333 224.413"></polyline>
            <polyline id="Fill-86" fill="#FFFFFF" fill-rule="nonzero" points="429.333 224.534 429.16 224.27 424.953 227.153 424.69 227.334 427.254 230.959 427.448 231.201 431.558 228.394 432.369 229.545 428.522 232.185 428.252 232.358 431.253 236.593 431.426 236.836 436.396 233.439 437.22 234.59 430.22 239.372 421.862 227.555 428.085 223.3 429.083 224.707 429.333 224.534 429.16 224.27 429.333 224.534 429.582 224.353 428.405 222.697 428.245 222.455 421.002 227.396 430.068 240.218 438.073 234.75 436.721 232.837 436.555 232.587 431.572 235.983 429.119 232.517 432.972 229.877 433.235 229.704 431.883 227.798 431.71 227.549 427.593 230.369 425.556 227.486 429.506 224.783 429.763 224.61 429.582 224.353 429.333 224.534"></polyline>
            <polyline id="Fill-87" fill="#FFFFFF" fill-rule="nonzero" points="455.616 221.27 450.5 221.27 450.5 225.449 455.511 225.449 455.511 227.501 450.5 227.501 450.5 232.422 456.551 232.422 456.551 234.459 447.437 234.459 447.437 219.219 455.616 219.219 455.616 221.27"></polyline>
            <polyline id="Fill-88" fill="#FFFFFF" fill-rule="nonzero" points="455.532 221.343 455.532 221.038 450.23 221.038 450.23 225.778 455.123 225.778 455.123 227.185 450.23 227.185 450.23 232.646 456.135 232.646 456.135 234.053 447.831 234.053 447.831 219.631 455.227 219.631 455.227 221.343 455.532 221.343 455.532 221.038 455.532 221.343 455.851 221.343 455.851 219.013 447.222 219.013 447.222 234.671 456.758 234.671 456.758 232.037 450.833 232.037 450.833 227.796 455.74 227.796 455.74 225.154 450.833 225.154 450.833 221.647 455.851 221.647 455.851 221.343 455.532 221.343"></polyline>
            <path d="M479.682,234.463 L477.456,234.463 C474.545,230.956 471.62,227.47 468.751,223.533 L468.71,223.533 L468.71,234.463 L466.243,234.463 L466.243,219.228 L468.489,219.228 C471.413,222.708 474.303,226.167 477.179,230.09 L477.221,230.09 L477.221,219.228 L479.682,219.228 L479.682,234.463" id="Fill-89" fill="#FFFFFF" fill-rule="nonzero"></path>
            <path d="M479.576,234.364 L479.576,234.053 L477.392,234.053 L477.392,234.364 L477.628,234.156 C474.751,230.705 471.882,227.274 469.069,223.4 L468.971,223.268 L468.465,223.268 L468.465,234.053 L466.657,234.053 L466.657,219.623 L468.555,219.623 L468.555,219.324 L468.32,219.512 C471.203,222.963 474.051,226.366 476.866,230.226 L476.955,230.351 L477.468,230.351 L477.468,219.623 L479.271,219.623 L479.271,234.364 L479.576,234.364 L479.576,234.053 L479.576,234.364 L479.88,234.364 L479.88,219.019 L476.852,219.019 L476.852,230.047 L477.157,230.047 L477.157,229.727 L477.115,229.727 L477.115,230.047 L477.358,229.859 C474.523,225.992 471.667,222.568 468.791,219.137 L468.702,219.019 L466.046,219.019 L466.046,234.669 L469.076,234.669 L469.076,223.573 L468.771,223.573 L468.771,223.878 L468.812,223.878 L468.812,223.573 L468.563,223.753 C471.411,227.655 474.287,231.093 477.157,234.558 L477.253,234.669 L479.88,234.669 L479.88,234.364 L479.576,234.364" id="Fill-90" fill="#FFFFFF" fill-rule="nonzero"></path>
            <path d="M499.087,221.879 C498.408,221.422 497.513,221.006 496.633,221.006 C495.344,221.006 494.644,221.726 494.644,222.621 C494.644,223.626 495.711,224.388 497.493,225.802 C499.544,227.43 500.632,228.726 500.632,230.584 C500.632,232.504 498.802,234.728 495.365,234.728 C493.771,234.728 492.01,234.251 490.873,233.197 L491.99,231.458 C492.793,232.053 493.729,232.684 495.109,232.684 C496.363,232.684 497.472,232.005 497.472,230.57 C497.472,228.893 495.434,227.777 494.207,226.814 C492.731,225.622 491.484,224.686 491.484,222.662 C491.484,220.618 493.556,218.962 496.322,218.962 C498.061,218.962 499.461,219.592 500.175,220.285 L499.087,221.879" id="Fill-91" fill="#FFFFFF" fill-rule="nonzero"></path>
            <path d="M499.018,221.941 L499.192,221.684 C498.498,221.213 497.59,220.776 496.62,220.769 C495.941,220.769 495.372,220.97 494.978,221.317 L494.381,222.676 C494.423,223.909 495.567,224.651 497.279,226.057 C499.268,227.652 500.217,228.83 500.217,230.542 C500.217,232.24 498.61,234.312 495.379,234.312 C493.889,234.319 492.24,233.847 491.214,232.898 L491.006,233.113 L491.263,233.279 L492.351,231.56 L492.094,231.394 L491.908,231.643 C492.704,232.226 493.689,232.912 495.13,232.912 C495.802,232.912 496.447,232.732 496.946,232.323 C497.438,231.935 497.75,231.304 497.75,230.514 C497.708,228.581 495.58,227.513 494.451,226.578 C492.989,225.379 491.914,224.567 491.908,222.724 C491.914,220.922 493.737,219.37 496.323,219.37 C497.944,219.37 499.247,219.972 499.864,220.596 L500.078,220.375 L499.829,220.194 L498.769,221.774 L499.018,221.941 L499.192,221.684 L499.018,221.941 L499.275,222.107 L500.342,220.541 L500.481,220.326 L500.293,220.153 C499.524,219.397 498.089,218.76 496.323,218.753 C493.508,218.76 491.311,220.471 491.297,222.724 C491.297,224.866 492.635,225.898 494.063,227.055 C495.31,228.026 497.189,229.135 497.147,230.514 C497.133,231.748 496.274,232.274 495.13,232.296 C493.889,232.289 493.058,231.734 492.268,231.144 L492.011,230.951 L490.749,232.954 L490.619,233.162 L490.791,233.342 C491.991,234.444 493.779,234.922 495.379,234.928 C498.872,234.922 500.828,232.628 500.841,230.542 C500.841,228.553 499.67,227.18 497.666,225.572 C495.885,224.179 494.95,223.403 494.992,222.676 C495.005,221.962 495.477,221.414 496.62,221.393 C497.389,221.387 498.221,221.767 498.852,222.19 L499.094,222.363 L499.275,222.107 L499.018,221.941" id="Fill-92" fill="#FFFFFF" fill-rule="nonzero"></path>
            <path d="M522.023,221.984 C521.288,221.596 520.047,221.138 518.863,221.138 C515.73,221.138 513.47,223.336 513.47,226.795 C513.47,230.419 515.965,232.547 518.953,232.547 C520.131,232.547 521.219,232.221 522.023,231.785 L522.875,233.683 C521.94,234.218 520.304,234.723 518.821,234.723 C513.539,234.723 510.199,231.244 510.199,226.746 C510.199,222.595 513.519,218.956 518.863,218.956 C520.456,218.956 521.94,219.531 522.972,220.14 L522.023,221.984" id="Fill-93" fill="#FFFFFF" fill-rule="nonzero"></path>
            <path d="M521.91,222.051 L522.055,221.78 C521.286,221.378 520.044,220.914 518.811,220.907 C517.196,220.907 515.776,221.475 514.785,222.508 C513.786,223.533 513.204,225.023 513.204,226.791 C513.204,228.648 513.842,230.159 514.895,231.192 C515.928,232.231 517.356,232.779 518.894,232.779 C520.107,232.779 521.216,232.439 522.055,231.989 L521.91,231.719 L521.625,231.844 L522.456,233.715 L522.741,233.596 L522.581,233.327 C521.729,233.833 520.149,234.317 518.762,234.31 C513.717,234.297 510.625,231.025 510.612,226.757 C510.619,222.827 513.696,219.375 518.811,219.368 C520.294,219.368 521.701,219.909 522.692,220.484 L522.837,220.22 L522.575,220.082 L521.639,221.912 L521.91,222.051 L522.055,221.78 L521.91,222.051 L522.179,222.182 L523.121,220.366 L523.253,220.102 L523.004,219.957 C521.944,219.334 520.447,218.759 518.811,218.759 C513.405,218.759 510.009,222.487 509.995,226.757 C509.995,229.044 510.848,231.095 512.372,232.564 C513.897,234.041 516.094,234.928 518.762,234.928 C520.281,234.921 521.91,234.422 522.893,233.853 L523.129,233.715 L522.186,231.594 L522.055,231.296 L521.756,231.441 C521.015,231.857 519.99,232.177 518.894,232.177 C516.115,232.155 513.828,230.215 513.821,226.791 C513.828,223.519 515.879,221.537 518.811,221.516 C519.892,221.516 521.071,221.946 521.771,222.32 L522.034,222.467 L522.179,222.182 L521.91,222.051" id="Fill-94" fill="#FFFFFF" fill-rule="nonzero"></path>
            <polyline id="Fill-95" fill="#FFFFFF" fill-rule="nonzero" points="545.571 234.463 542.507 234.463 542.507 227.123 536.118 227.123 536.118 234.463 533.053 234.463 533.053 219.228 536.118 219.228 536.118 225.078 542.507 225.078 542.507 219.27 545.571 219.27 545.571 234.463"></polyline>
            <polyline id="Fill-96" fill="#FFFFFF" fill-rule="nonzero" points="545.476 234.364 545.476 234.053 542.759 234.053 542.759 226.816 535.863 226.816 535.863 234.053 533.457 234.053 533.457 219.623 535.863 219.623 535.863 225.41 542.759 225.41 542.759 219.678 545.163 219.678 545.163 234.364 545.476 234.364 545.476 234.053 545.476 234.364 545.781 234.364 545.781 219.061 542.142 219.061 542.142 224.8 536.48 224.8 536.48 219.019 532.841 219.019 532.841 234.669 536.48 234.669 536.48 227.427 542.135 227.427 542.142 234.364 542.142 234.669 545.781 234.669 545.781 234.364 545.476 234.364"></polyline>
            <path d="M563.573,219.22 L569.297,234.454 L565.853,234.454 L564.432,230.309 L559.039,230.309 L557.474,234.454 L554.819,234.454 L561.022,219.22 L563.573,219.22 Z M563.982,228.425 C563.323,226.428 562.678,224.585 561.957,222.228 L561.91,222.228 C561.286,224.585 560.572,226.428 559.844,228.425 L563.982,228.425 L563.982,228.425 Z" id="Fill-97" fill="#FFFFFF" fill-rule="nonzero"></path>
            <path d="M563.539,219.323 L563.255,219.428 L568.709,234.051 L565.993,234.051 L564.676,230.156 L564.607,229.948 L558.889,229.948 L557.357,234.051 L555.41,234.051 L561.252,219.628 L563.539,219.628 L563.539,219.323 L563.255,219.428 L563.539,219.323 L563.539,219.018 L560.829,219.018 L554.515,234.668 L557.78,234.668 L559.319,230.572 L564.169,230.572 L565.487,234.453 L565.549,234.668 L569.589,234.668 L563.754,219.018 L563.539,219.018 L563.539,219.323 Z M563.941,228.416 L564.232,228.312 C563.595,226.337 562.95,224.508 562.257,222.199 L562.188,221.984 L561.682,221.984 L561.62,222.22 C561.009,224.508 560.302,226.323 559.603,228.305 L559.456,228.728 L564.37,228.728 L564.232,228.312 L563.941,228.416 L563.941,228.104 L559.894,228.104 L559.894,228.416 L560.185,228.513 C560.884,226.538 561.591,224.701 562.215,222.366 L561.917,222.29 L561.917,222.588 L561.958,222.588 L561.958,222.29 L561.675,222.38 C562.368,224.701 563.019,226.538 563.65,228.507 L563.941,228.416 L563.941,228.104 L563.941,228.416 L563.941,228.416 Z" id="Fill-98" fill="#FFFFFF" fill-rule="nonzero"></path>
            <path d="M581.604,234.463 L578.54,234.463 L578.54,219.228 L583.329,219.228 C586.774,219.228 588.881,220.657 588.881,223.63 C588.881,226.194 586.656,228.717 583.01,228.717 L582.289,228.717 L582.289,226.818 L582.962,226.756 C584.411,226.666 585.811,225.771 585.811,223.734 C585.811,222.161 584.791,221.273 582.976,221.273 L581.604,221.273 L581.604,234.463" id="Fill-99" fill="#FFFFFF" fill-rule="nonzero"></path>
            <path d="M581.651,234.364 L581.651,234.053 L578.948,234.053 L578.948,219.623 L583.334,219.623 C586.648,219.671 588.443,220.926 588.47,223.663 C588.47,226.019 586.447,228.376 583.023,228.383 L582.614,228.383 L582.614,227.1 L583.002,227.059 C584.527,226.997 586.086,225.95 586.073,223.767 C586.079,222.935 585.802,222.235 585.247,221.75 C584.701,221.272 583.931,221.036 582.989,221.036 L581.346,221.036 L581.346,234.364 L581.651,234.364 L581.651,234.053 L581.651,234.364 L581.955,234.364 L581.955,221.653 L582.989,221.653 C584.672,221.68 585.435,222.387 585.462,223.767 C585.442,225.618 584.278,226.345 582.953,226.449 L582.275,226.512 L582.004,226.539 L582.004,228.993 L583.023,228.993 C586.751,228.993 589.080129,226.38 589.080129,223.663 C589.087,222.132 588.526,220.926 587.507,220.156 C586.495,219.373 585.068,219.019 583.334,219.019 L578.337,219.019 L578.337,234.669 L581.955,234.669 L581.955,234.364 L581.651,234.364" id="Fill-100" fill="#FFFFFF" fill-rule="nonzero"></path>
        </g>
    </g>
</svg>